<svg xmlns="http://www.w3.org/2000/svg" viewBox="0 0 128 128"><path d="M23.222 62.118h5.735V44.853c0-19.354 15.696-35.05 35.05-35.05s35.05 15.696 35.05 35.05v17.094l-.247.17-.053.037-.006.004-.006.003-.006.004-.027.018-.031.021-.006.005-.034.023-.002.001-.014.01-.009.004-.016.012-.004.002-.021.014-.021.014-.028.02-.014.008-.012.008-.01.006-.032.021-.03.02-.002.001-.04.027-.008.005-.048.032-.005.003-.02.013-.009.005-.063.042-.01.006-.014.01-.006.003-.005.003-.032.022-.005.001v.001l-.003.001-.037.024-.008.005-.012.008-.012.007-.008.006-.02.012-.019.012h-.002l-.02.013-.002.002-.018.01-.006.004-.014.01-.01.005-.01.007-.013.007-.008.005-.106.067-.023.013-.006.004-.057.035-.004.003-.065.04h-.002l-.005.003-.018.01v.001l-.019.012h-.002l-.016.01-.016.01-.002.002-.008.005-.028.017-.014.009-.022.013-.062.037-.063.036-.063.037-.063.038-.127.074-.064.037-.064.038-.027.015-.168.097-.065.038-.066.037-.066.038-.087.05-.113.064-.067.038-.26.146-.013.006-.068.038-.07.039-.015.008-.092.05-.205.114-.097.053-.299.161-.025.014-.047.025-.147.078-.073.04-.012.006-.135.071h-.001l-.075.04-.021.01-.13.068-.075.04-.069.035-.286.147-.078.04-.343.172-.334.165-.112.054-.37.18c-6.962 3.324-18.124 6.862-39.315 8.383-15.18 1.09-24.383 7.772-30.386 15.836V62.118Zm21.88 0h37.81V44.853c0-10.44-8.466-18.905-18.905-18.905s-18.905 8.465-18.905 18.905zM94.08 64.84l-.342.173m-13.854-46.73A29.86 29.86 0 0 0 64.52 14.05c-15.391 0-28.078 11.597-29.804 26.525 4.512-14.116 17.739-24.341 33.35-24.341 4.147 0 8.126.723 11.818 2.047m24.908 50.443v49.47H35.005c7.693-4.277 13.426-3.84 22.922-3.54 12.932.408 27.22-5.009 34.248-12.182 7.028-7.174-.636-1.697-8.592.321-7.957 2.017-23.353 2.232-33.645-.473 32.414.441 45.03-10.044 52.193-19.434s-3.098-1.63-9.746 1.607c-6.648 3.24-18.242 5.555-30.99 3.867 19.297-.04 33.98-9.684 43.397-19.636"/></svg>
