<svg xmlns="http://www.w3.org/2000/svg" data-name="Layer 1" viewBox="0 0 448 502"><path d="M234.46 481.43c4.79-5.44 9.94-11.24 13.52-14.81 7.09-7.09 14.42-7.03 14.42-7.03s-8.37-4.11-17.2 4.71c-2.37 2.38-7.69 8.36-13.12 14.46-1.97-2.21-3.91-4.4-5.71-6.39 1.99-2.2 3.86-4.19 5.43-5.75 7.09-7.09 14.42-7.03 14.42-7.03s-8.37-4.11-17.18 4.71c-1.12 1.13-2.91 3.06-5.04 5.42-2.13-2.37-3.93-4.3-5.04-5.42-8.82-8.82-17.19-4.71-17.19-4.71s7.32-.07 14.42 7.03c1.57 1.56 3.43 3.56 5.43 5.75-1.8 2-3.75 4.18-5.71 6.39-5.44-6.1-10.76-12.08-13.13-14.46-8.82-8.82-17.18-4.71-17.18-4.71s7.32-.07 14.42 7.03c3.58 3.59 8.72 9.35 13.52 14.81-4.53 5.07-8.85 9.86-11.31 12.31-5.9 5.91-12.78 6.36-12.78 6.36s7.4 4.33 17.48-5.98c1.86-1.9 5.22-5.7 8.98-10 2.05 2.33 3.99 4.52 5.61 6.34-1.21 1.31-2.29 2.45-3.12 3.27-5.9 5.91-12.79 6.36-12.79 6.36s7.4 4.32 17.5-5.99l.9-.93c.32.34.63.66.9.93 10.08 10.31 17.48 5.99 17.48 5.99s-6.88-.46-12.78-6.36c-.84-.83-1.92-1.97-3.13-3.27 1.63-1.81 3.56-4.01 5.61-6.34 3.78 4.3 7.11 8.09 8.99 10 10.08 10.31 17.48 5.98 17.48 5.98s-6.88-.45-12.78-6.36c-2.45-2.45-6.78-7.25-11.31-12.31ZM224 487.77c-1.78-1.94-3.72-4.11-5.71-6.34 1.89-2.15 3.83-4.34 5.71-6.44 1.88 2.1 3.82 4.29 5.71 6.44-2 2.23-3.94 4.4-5.71 6.34ZM38.76 176.73c1.09 3.48 4.26 5.64 8.3 5.64 1.17 0 2.36-.19 3.54-.55.14.24.31.48.54.8a8.93 8.93 0 0 0 2.13 2.08c.26.17.55.26.84.26.48 0 .94-.23 1.24-.65.47-.68.3-1.61-.39-2.08-.52-.35-1-.83-1.42-1.38-.09-.13-.15-.2-.21-.29 1.57-.96 2.86-2.22 3.65-3.71 1-1.9 1.19-3.97.56-6-.61-1.94-2.18-2.53-3.02-2.59-.1 0-.2.04-.3.06-.1-.49-.22-.98-.37-1.46-1.45-4.6-5.62-8.31-8.78-8.03-.36-.31-.98-.69-1.75-.44-.77.23-1.06.85-1.21 1.36-.79.45-1.48 1.21-2.02 2.24-1.35 2.56-1.59 6.24-.61 9.36.15.48.33.95.53 1.41-.09.04-.18.06-.26.12-.65.52-1.6 1.92-.99 3.86Zm16.1-4.28c.16 1.02-.02 2.04-.52 2.99-.83 1.58-2.5 2.86-4.58 3.51-.91.28-1.82.43-2.71.43-2.44 0-4.32-1.06-5.18-2.87.96.24 1.95.29 2.56.29 1.45 0 2.98-.24 4.45-.69 2.48-.78 4.71-2.16 5.99-3.66Zm-12.12-9.07c.36-.69.74-1.01.99-1.09.28-.09.5-.24.67-.42.24.05.5.04.79-.05 1.2-.36 4.61 2.15 5.81 5.93.39 1.25.55 2.53.5 3.75-.83.63-2.02 1.3-3.52 1.77-1.17.36-2.4.56-3.56.56-.13 0-.23 0-.35-.02-.73-.97-1.35-2.08-1.74-3.34-.85-2.74-.39-5.59.4-7.1Zm30.51 38.08c2.02-.04 3.05-1.38 3.34-2.17.03-.09.02-.19.03-.28.38.03.76.05 1.16.05h.33c3.27-.07 6.68-1.47 8.68-3.56.81-.84 1.31-1.75 1.48-2.64.39-.26.92-.73.9-1.53 0-.81-.52-1.27-.97-1.56-.76-3.11-5.52-5.85-10.42-5.75-.5 0-1.01.05-1.49.12-.02-.1 0-.2-.04-.31-.31-.76-1.35-2.02-3.41-2.02-2.43.06-4.6 1.17-6.11 3.15-.85 1.12-1.43 2.47-1.76 3.94-.09-.03-.19-.06-.33-.1-.65-.21-1.25-.51-1.79-.9a1.49 1.49 0 0 0-2.09.32c-.49.66-.35 1.61.32 2.09.79.58 1.68 1.04 2.64 1.35.38.13.66.2.93.26.15 5.56 3.67 9.59 8.41 9.59 0-.04.18-.04.2-.04Zm4.59-14.48c3.93-.14 7.44 2.36 7.47 3.56 0 .31.08.57.2.79-.12.22-.18.49-.17.79 0 .24-.18.71-.72 1.28-1.17 1.23-3.74 2.58-6.58 2.64-1.3.03-2.57-.17-3.71-.54-.38-.98-.7-2.31-.74-3.91-.03-1.55.22-2.87.54-3.86 1.13-.45 2.38-.73 3.71-.76Zm-10.22 4.76c-.05-1.94.47-3.71 1.46-5 .58-.76 1.55-1.64 3.07-1.9-.98 1.68-1.6 4.28-1.54 6.84.06 2.49.75 5.08 1.87 6.76-2.78-.33-4.79-3.04-4.86-6.7ZM57.1 273.76c.28-1.13.27-2.16-.02-3.02.21-.42.44-1.11.02-1.8-.4-.68-1.08-.83-1.61-.86-2.2-2.31-7.76-2.31-11.91.18-.43.26-.85.54-1.24.84-.06-.08-.11-.18-.19-.24-.14-.11-.87-.64-1.98-.64-.68 0-1.35.2-1.97.57-2.08 1.26-3.41 3.3-3.75 5.77-.19 1.39 0 2.85.43 4.3-.1.02-.2.05-.34.08-.68.14-1.35.17-1.99.1-.82-.1-1.57.49-1.66 1.31-.09.82.49 1.56 1.31 1.65.34.04.68.06 1.02.06.64 0 1.29-.07 1.94-.2.39-.09.67-.16.94-.23 1.97 3.24 5.04 5.18 8.24 5.18 1.42 0 2.76-.39 4-1.14 1.73-1.04 1.96-2.71 1.81-3.53-.02-.1-.08-.17-.11-.26.44-.21.89-.45 1.31-.71 2.79-1.68 5.05-4.6 5.75-7.41Zm-11.98-2.93c3.41-2.05 7.64-1.65 8.25-.65.16.28.36.48.58.61 0 .24.08.5.24.77.13.21.2.71 0 1.48-.4 1.64-1.96 4.09-4.41 5.56-1.12.68-2.31 1.14-3.49 1.37-.82-.66-1.75-1.66-2.58-3.01-.81-1.35-1.25-2.64-1.46-3.67.77-.94 1.74-1.79 2.86-2.46Zm-6.51 9.21c-1-1.66-1.43-3.45-1.21-5.07.13-.95.54-2.21 1.72-3.18-.02 1.96.73 4.52 2.05 6.72 1.35 2.22 3.25 4.05 4.98 4.93-2.55 1.09-5.73-.36-7.55-3.39Zm-33.69-3.16c.36.35.75.68 1.14.97-.05.08-.13.14-.17.23-.31.78-.45 2.46 1.02 3.85 1.48 1.39 3.32 2.13 5.35 2.13 2.64 0 5.37-1.28 7.47-3.51.24.14.5.27.86.42.91.42 1.87.68 2.86.77h.15c.76 0 1.42-.57 1.49-1.35a1.51 1.51 0 0 0-1.35-1.64c-.66-.06-1.31-.24-1.93-.51-.12-.06-.2-.1-.29-.14.9-1.61 1.38-3.35 1.32-5.04-.06-2.13-.92-4.04-2.46-5.48-.92-.89-1.89-1.08-2.53-1.08-.71 0-1.21.21-1.35.28-.09.05-.16.13-.24.2-.33-.38-.67-.75-1.04-1.09-3.51-3.28-8.89-4.47-11.58-2.68-.47-.09-1.2-.13-1.75.48-.55.57-.5 1.27-.38 1.77-.46.79-.69 1.79-.65 2.96.08 2.9 1.68 6.22 4.06 8.45Zm14.96-3.71c.06 1.79-.77 3.72-2.27 5.29-1.55 1.65-3.49 2.6-5.33 2.6-1.01 0-1.94-.29-2.74-.85 1.89-.5 4.14-1.91 5.9-3.78 1.77-1.89 3.03-4.19 3.41-6.11.64.79.98 1.77 1.02 2.85Zm-15.72-6.25c.2-.21.33-.46.39-.69.24-.07.46-.2.66-.44.85-.89 5.07-.39 7.96 2.31.96.9 1.73 1.94 2.28 3.01-.42.96-1.13 2.13-2.2 3.27-1.07 1.14-2.21 1.9-3.19 2.4-1.09-.48-2.14-1.16-3.09-2.06-2.08-1.95-3.08-4.66-3.13-6.37-.02-.78.14-1.25.31-1.44Zm65.73 90.59c-.31-1.13-.81-2.03-1.48-2.64-.02-.47-.15-1.17-.83-1.55-.69-.43-1.37-.23-1.84 0-3.04-.97-7.91 1.73-10.34 5.92-.25.44-.48.88-.68 1.33-.09-.04-.18-.11-.29-.13-.08 0-.32-.02-.39-.02-1.27 0-2.43.72-3.11 1.9-1.96 3.38-1.05 7.47 1.97 10.4-.07.06-.16.13-.27.23-.52.45-1.08.79-1.69 1.05-.76.32-1.13 1.19-.82 1.95.24.58.79.93 1.38.93.19 0 .39-.04.57-.12.91-.37 1.76-.9 2.52-1.56.3-.25.51-.46.71-.65 1.79 1.01 3.72 1.57 5.59 1.57 3.06 0 5.64-1.45 7.07-3.95 1.01-1.75.4-3.32-.12-3.98-.06-.08-.16-.12-.23-.17.28-.41.56-.82.81-1.26 1.64-2.82 2.21-6.44 1.46-9.26Zm-11.91 3.24c1.99-3.44 5.89-5.13 6.92-4.54.28.17.54.23.8.24.13.2.31.4.58.55.2.13.51.52.71 1.28.45 1.65.28 4.54-1.16 7-.65 1.11-1.45 2.08-2.34 2.84-1.06-.17-2.42-.57-3.77-1.35-1.36-.79-2.37-1.71-3.05-2.49.22-1.19.65-2.4 1.31-3.54Zm-1.24 11.2c-2.74-1.58-4.7-4.57-3.55-7.46.92 1.73 2.79 3.57 5.04 4.88 2.2 1.26 4.79 2.01 6.73 1.92-1.68 2.16-5.17 2.43-8.23.66ZM45 378.43c-.34-.76-1.23-1.09-1.97-.76-.59.27-1.24.43-1.93.49-.15.02-.24.02-.35.03 0-1.5-.25-2.96-.84-4.24-1.04-2.24-2.91-3.82-5.26-4.41-1.72-.43-3.23.45-3.78 1.23-.06.09-.07.18-.11.28-.47-.17-.95-.31-1.44-.44-4.67-1.16-9.94.44-11.42 3.3-.46.17-1.13.49-1.3 1.29-.2.77.17 1.34.53 1.73-.03.91.26 1.9.86 2.9 1.49 2.48 4.5 4.6 7.67 5.4.49.13.98.2 1.47.28 0 .1-.05.2-.04.29.11.83.82 2.37 2.78 2.86.65.17 1.3.24 1.94.24 3.97 0 7.41-3.09 8.58-7.7h.03c.27 0 .56-.02.94-.06 1.01-.09 1.99-.34 2.89-.74.76-.33 1.09-1.23.76-1.97Zm-24.44-.15c-.4-.67-.49-1.16-.42-1.39.07-.3.06-.57 0-.81.17-.19.3-.42.36-.72.31-1.2 4.25-2.81 8.08-1.86 1.29.32 2.45.88 3.46 1.57.09 1.04.04 2.38-.33 3.89-.39 1.54-1 2.79-1.57 3.65-1.2.12-2.48.03-3.75-.3-2.75-.68-4.95-2.56-5.82-4.03Zm16.95 2.13c-.82 3.29-3.11 5.48-5.7 5.48-.17 0-.34 0-.51-.03 1.48-1.42 2.73-3.86 3.31-6.18.61-2.47.6-5.15 0-7.02 1.41.57 2.17 1.67 2.58 2.53.68 1.49.79 3.33.31 5.21Zm80.04 63.98h.13c5.52 0 9.72-3.56 9.76-8.27.03-2.03-1.27-3.11-2.05-3.42-.09-.03-.18-.02-.28-.04.06-.49.09-.98.1-1.49.04-3.27-1.24-6.73-3.26-8.8-.82-.83-1.69-1.37-2.58-1.57-.24-.4-.71-.96-1.52-.96-.81-.02-1.27.48-1.57.9-3.12.65-6.06 5.38-6.13 10.21 0 .5.02 1.01.06 1.5-.1.02-.21 0-.31.03-.79.29-2.12 1.34-2.13 3.35-.03 2.43 1.01 4.64 2.93 6.22 1.09.9 2.42 1.51 3.87 1.9-.03.09-.06.19-.12.32-.24.66-.56 1.24-.96 1.74-.52.65-.42 1.58.23 2.11.28.22.61.34.94.34.44 0 .87-.2 1.16-.57a9.03 9.03 0 0 0 1.45-2.6c.12-.38.2-.65.28-.91Zm-.59-20.73c.32.03.58-.06.81-.17.21.13.48.2.79.2.24 0 .69.2 1.24.77 1.19 1.21 2.45 3.82 2.41 6.67-.02 1.32-.29 2.56-.72 3.71-.98.32-2.3.6-3.88.6a12.33 12.33 0 0 1-3.86-.68c-.4-1.15-.65-2.42-.63-3.75.06-3.97 2.63-7.35 3.82-7.35Zm-6.17 12.96c1.65 1.06 4.22 1.75 6.96 1.8 2.53 0 5.01-.62 6.64-1.61-.46 3.02-3.62 4.59-6.72 4.59h-.14c-1.94-.02-3.69-.61-4.94-1.65-.75-.61-1.61-1.61-1.8-3.13Zm-1.96 17.59c-.39.52-.88.99-1.45 1.37-.12.08-.2.13-.28.19-1.65-2.97-4.42-4.83-7.49-4.83-.69 0-1.39.1-2.08.28-1.95.53-2.62 2.07-2.71 2.91 0 .11.03.2.04.31-.49.08-.98.18-1.47.31-4.65 1.27-8.48 5.26-8.36 8.47-.31.35-.72.95-.5 1.75.2.76.81 1.08 1.31 1.23.42.82 1.16 1.53 2.18 2.12 1.61.92 3.71 1.42 5.83 1.42 1.18 0 2.38-.16 3.5-.46.49-.14.96-.29 1.42-.46.04.08.05.17.11.25.44.59 1.42 1.28 2.74 1.28.35 0 .72-.05 1.08-.14 2.05-.55 3.68-1.82 4.74-3.67 1.27-2.21 1.56-5.12.79-7.98.24-.14.49-.29.82-.51.83-.56 1.57-1.25 2.16-2.05.5-.67.36-1.6-.29-2.1-.66-.49-1.6-.35-2.09.31Zm-12.24 12.18c-2.75.76-5.59.18-7.06-.66-.68-.4-1-.79-1.05-1.01-.07-.3-.21-.54-.39-.72.06-.24.06-.5-.03-.8-.32-1.2 2.32-4.53 6.14-5.58 1.27-.35 2.55-.46 3.76-.37.6.86 1.22 2.08 1.64 3.59.41 1.51.49 2.86.41 3.91-1.01.72-2.15 1.29-3.42 1.64Zm8.27-1.34c-.54.93-1.3 1.63-2.25 2.03.56-1.87.53-4.54-.13-7.01-.64-2.31-1.94-4.72-3.44-6.11 2.79-.34 5.38 1.87 6.32 5.33.57 2.12.4 4.22-.5 5.77Z"/><path d="M199.05 484.52c1.01 0 1.94-.06 2.16-.79a.88.88 0 0 0 .04-.32c.02-.05.02-.11.03-.17.06-.69.09-1.46-9.8-3.27.09-3.63-.11-10.9-4.51-13.74-.91-.58-1.84-.87-2.74-.87-2.51 0-3.83 2.11-4.71 3.49-.14.23-.33.53-.5.76-.43-.34-.64-1.19-1.01-3.82l-.24-1.69c-.41-2.77-1.26-8.54-7.14-10.2-.74-.2-1.45-.31-2.1-.31-4.23 0-5.42 3.99-6.14 6.36-.26.85-.68 2.28-1.13 2.53-.75-.61-.73-4.48-.72-6.13v-1.2c-.03-7.84-3.69-12.34-10.03-12.34-.65 0-1.34.05-1.94.13-1.88.17-3.34.87-4.36 2.12-1.94 2.4-1.51 5.85-1.13 8.91.13 1.05.32 2.56.23 3.26-.23.08-.45.11-.65.11-1.04 0-2.16-1.15-3.45-3.52-2.35-4.22-6.07-6.65-10.22-6.65s-7.94 2.33-10.64 6.39c-2.71 4.08-3.11 8.77-1.06 12.59 2.01 3.75 6.12 6 10.98 6 .39 0 .79-.02 1.17-.03.42-.03.82-.05 1.21-.05 3 0 4.1.82 4.71 2.13-.56.46-1.87 1.09-2.79 1.52-2.77 1.33-5.9 2.82-6.69 5.83-.45 1.7-.02 3.51 1.34 5.44 3.59 4.67 7.66 5.64 10.44 5.64 3.3 0 6.68-1.42 9.5-4 .38-.35.76-.71 1.15-1.07 1.58-1.49 3.75-3.54 5-3.54.15 0 .35.03.61.17.07.39-.42 1.6-.72 2.33-.79 1.9-1.76 4.28-.69 6.62.72 1.58 2.17 2.73 4.45 3.5 1.34.46 2.66.68 3.93.68 4.84 0 7.81-3.25 9.24-4.8l.23-.24c.49-.51.93-1.01 1.33-1.48 1.41-1.58 2.17-2.41 2.98-2.41h.02c.06.28.12.64.16.92.27 1.78.83 6.1 6.09 5.56 4.24-.45 7.56-4.2 9.9-11.1 3.85.48 6.6.74 8.21.74Zm-18.59 5.87c-.44.05-.75-.03-.76-.03-.2-.2-.35-1.21-.44-1.75-.22-1.5-.61-4.03-3.14-4.56-.5-.11-.99-.17-1.47-.17-2.86 0-4.56 1.9-6.33 3.92-.39.44-.79.9-1.25 1.38l-.26.29c-1.23 1.32-3.08 3.35-5.94 3.35-.79 0-1.63-.16-2.49-.45-.97-.34-1.64-.76-1.8-1.11-.26-.58.31-1.96.76-3.07.82-2 2.19-5.34-.71-7.54-1.01-.76-2.12-1.15-3.31-1.15-3.03 0-5.59 2.42-8.07 4.75-.36.35-.73.69-1.09 1.03-1.98 1.81-4.28 2.82-6.47 2.82-2.54 0-4.93-1.35-6.82-3.82-.28-.4-.75-1.16-.62-1.64.27-1 2.69-2.16 4.29-2.93 2.77-1.33 6.55-3.14 5.21-6.77-2.03-5.42-7.32-5.42-9.06-5.42-.48 0-.98.02-1.5.05-3.66.26-6.56-1.08-7.91-3.6-1.25-2.32-.93-5.3.84-7.98 1.86-2.79 4.37-4.4 6.9-4.4s4.74 1.55 6.29 4.34c1.36 2.5 3.62 5.84 7.39 5.84.89 0 1.8-.2 2.71-.57 2.97-1.22 2.54-4.73 2.16-7.83-.24-1.95-.57-4.62.17-5.52.08-.1.32-.39 1.37-.49.5-.08.98-.11 1.44-.11 1.5 0 5.51 0 5.55 7.88v1.16c-.02 3.4-.03 7.25 2.02 9.31.96.97 2.33 1.41 3.68 1.31 3.29-.26 4.23-3.41 4.92-5.7 1.01-3.38 1.41-3.4 2.72-3.03 2.86.82 3.49 3.56 3.93 6.55l.24 1.66c.48 3.39.97 6.9 5.02 7.8.24.05.47.07.71.07 2.09 0 3.2-1.76 4.01-3.05.3-.48.81-1.27.88-1.4 0 0 .12.02.35.17.96.61 2.46 2.64 2.44 9.17-1.09-.18-2.23-.37-3.49-.57-16.55-2.9-37.51-11.19-44.4-13.91q-2.15-.84-2.36-.84c-.22 0-.42.09-.56.24-.05.06-.09.13-.13.2-.03.06-.06.15-.06.22 0 .12 0 .22.03.33.48 1.4 27.58 14.3 46.72 17.69 1.26.2 2.44.38 3.56.54-2.05 5.72-4.29 7.18-5.86 7.34ZM64.71 176.06l.28.43.04.25h.7c.32 0 .67 0 2.81-2.33 2.78 1.49 6.53 3.2 10.05 3.2 1.52 0 2.87-.33 4.04-.98 1.25-.73 2.03-1.69 2.34-2.86.5-1.92-.52-3.62-1.26-4.87-.13-.21-.29-.5-.42-.73.63-.19 1.95.29 3.49.81l1.86.62c1.31.44 3.27 1.1 5.44 1.1 2.68 0 4.91-.99 6.59-2.89 1.28-1.33 1.91-2.76 1.88-4.25-.06-2.47-1.93-4.25-3.42-5.67-.57-.54-1.49-1.42-1.69-1.86.06-.07.13-.09.37-.09 1.33 0 3.63 1.17 5.48 2.12l.82.42c7.8 3.71 13.93 1.6 16.09-5.11.65-1.79.64-3.44-.06-4.89-1.3-2.72-4.45-3.81-7.21-4.77-.95-.33-2.32-.8-2.88-1.16.13-.92.71-2.12 4.67-2.13 4.59-.15 8.32-2.18 10.24-5.58 2.03-3.61 1.78-8.2-.71-12.57-2.3-4.05-6.16-6.48-10.32-6.48-4.69 0-8.76 2.97-10.87 7.89-1.67 3.63-2.88 4.37-4.29 4.38-.15-.72-.13-2.13-.13-3.13.02-2.93.05-6.25-1.97-8.29-.7-.71-1.96-1.54-4-1.54-.49 0-1 .05-1.61.16-4.28.88-7.51 2.98-9.35 6.07-1.8 3.02-2.12 6.7-.94 10.58.16.57.33 1.16.51 1.75.93 3.04 1.61 5.6.49 6.1-.37-.1-1.23-1.09-1.74-1.69-1.38-1.59-3.09-3.58-5.76-3.58-1.63 0-3.2.75-4.88 2.33-5.22 5.27-3.04 11.02-2.11 13.48l.12.32c.2.55.41 1.07.61 1.56.93 2.37 1.14 3.13.8 3.8-.26-.07-.58-.18-.83-.27-.9-.3-1.92-.65-3.04-.65-1.22 0-3.43.46-4.61 3.47-1.58 3.98.34 8.69 5.66 14.02-1.64 2.65-1.4 3.18-1.25 3.5Zm-.24-15.88c.2-.51.45-.6.44-.64.39 0 1.04.22 1.62.41.83.28 1.7.57 2.63.57 1.45 0 2.33-.71 2.83-1.31 2.4-3 1.26-5.89.16-8.69-.18-.46-.37-.95-.57-1.47l-.13-.35c-1.06-2.79-1.84-5.77 1.05-8.69 1.01-.95 1.56-1.05 1.75-1.05.62 0 1.59 1.13 2.37 2.02 1.24 1.44 2.79 3.23 5.09 3.23.62 0 1.24-.13 1.8-.39 4.91-2.05 3.19-7.73 2.05-11.49-.17-.56-.34-1.12-.5-1.7-.82-2.7-.65-5.13.49-7.04 1.18-1.97 3.4-3.36 6.34-3.97.28-.05.54-.08.77-.08.6 0 .76.17.82.22.71.72.68 3.35.68 5.1-.02 3.07-.06 7.26 3.7 7.61 5.15.51 7.58-3.27 9.3-7 1.41-3.28 3.93-5.23 6.77-5.23 2.53 0 4.93 1.57 6.42 4.2 1.68 2.97 1.94 5.96.69 8.17-1.15 2.03-3.44 3.2-6.4 3.3-7.14.02-8.88 3.65-9.1 6.71-.17 3.2 3.21 4.37 5.92 5.3 1.75.61 4.14 1.43 4.63 2.45.06.12.24.49-.13 1.51-1.14 3.54-3.22 3.94-4.68 3.94s-3.27-.49-5.19-1.41l-.76-.39c-2.39-1.22-5.11-2.6-7.52-2.6-2.03 0-3.62.97-4.49 2.79-1.36 3 1.09 5.34 2.72 6.88.8.76 2.01 1.92 2.03 2.53 0 .24-.23.62-.68 1.11-.87.98-1.92 1.45-3.3 1.45s-2.92-.5-4-.87l-1.85-.61c-1.71-.58-3.18-1.08-4.63-1.08-1.71 0-3.12.69-4.19 2.04-1.62 1.97-.31 4.19.47 5.5.24.41.64 1.06.74 1.42-.05.03-.11.08-.19.13-.46.26-1.07.39-1.81.39-2.31 0-5.11-1.22-7.02-2.19 1.6-1.88 3.65-4.36 6.33-7.64 9.96-12.18 25.79-25.94 32.79-31.53l.18-.13q2.72-1.92 2.76-2.34l.02-.3-.42-.52h-.36c-.29 0-.45 0-3.08 2.1-6.05 4.26-24.36 17.21-34.96 30.14-2.79 3.42-4.82 6.05-6.32 8.09-4.59-4.76-4.55-7.41-4.08-8.61Zm23.69 287.6c4.38 0 8.53-3.27 10.68-5.21 1.61 1.11 2.75 1.68 3.39 1.68.55 0 .8-.33.88-.47.02-.02.03-.05.04-.09.1-.09.17-.19.2-.3.13-.42.2-.69-2.35-3.23 1.59-2.57 5.89-9.74 3.05-14.59-1.18-2.12-2.81-2.56-3.97-2.56-1.4 0-2.64.66-3.63 1.18-.2.11-.44.23-.65.34-.13-.5.1-1.36.92-3.53l.63-1.68c.89-2.35 2.97-7.85-1.31-12.03-1.3-1.43-2.74-2.16-4.27-2.16-2.39 0-4.2 1.76-5.66 3.17-.61.59-1.61 1.57-1.98 1.58-.47-.79 1.61-4.49 2.29-5.72l.45-.82c2.16-4.11 2.68-7.73 1.56-10.74-.94-2.51-2.95-4.39-5.94-5.56-.94-.39-1.86-.58-2.73-.58-4.3 0-6 4.32-7.23 7.45-.37.94-.9 2.31-1.31 2.86-.9-.19-2.03-.86-2.1-4.55.17-3.67-.85-6.79-2.98-9.02-3.38-3.55-9.32-4.13-14.7-1.36-4.23 2.18-6.77 6.04-6.79 10.31-.02 4.47 2.71 8.57 7.4 11.01 3.82 1.72 4.37 2.97 4.26 4.31-.47.08-1.8.07-3.12 0-.81-.04-1.64-.08-2.45-.08-2.08 0-4.67.23-6.3 2.1-1.1 1.25-1.52 2.97-1.24 5.11 1.04 7.14 5.71 11.58 12.2 11.58 1.31 0 2.66-.18 3.98-.53.57-.13 1.17-.28 1.77-.45 1.68-.44 3.41-.89 4.71-.89 1.16 0 1.28.32 1.42.63-.11.36-1.13 1.16-1.73 1.65-1.57 1.24-3.53 2.81-3.8 5.33-.18 1.71.46 3.42 2.03 5.32 2.22 2.42 4.92 3.65 8.03 3.65 2.23 0 4.11-.64 5.37-1.05l.42-.14c.57-.18 1.12-.39 1.63-.57 1.27-.45 2.36-.83 3.07-.83.2 0 .39.02.66.19-.09.28-.23.64-.33.91-.62 1.58-2.27 5.81 2.59 7.84.92.34 1.91.52 2.93.52Zm-5.85-13.96c-1.48 0-2.91.5-4.57 1.09-.48.17-.99.36-1.52.53l-.46.16c-1.04.34-2.45.82-3.95.82-1.82 0-3.37-.72-4.64-2.11-.65-.79-.99-1.49-.95-1.9.07-.66 1.21-1.57 2.13-2.29 1.75-1.39 4.39-3.49 3.12-6.77-.49-1.31-1.88-3.5-5.59-3.5-1.87 0-3.89.52-5.85 1.03-.57.16-1.13.3-1.72.45-1.01.26-1.97.39-2.9.39-4.28 0-7.03-2.75-7.76-7.7-.1-.75-.04-1.31.17-1.53.19-.21.82-.58 2.93-.58.73 0 1.48.05 2.22.08.77.05 1.51.08 2.2.08 3.38 0 5.23-1.16 5.51-3.41.88-5.37-3.18-7.92-6.69-9.49-3.05-1.6-4.88-4.21-4.86-6.96 0-2.62 1.6-4.93 4.36-6.35 3.63-1.87 7.37-1.67 9.4.46 1.26 1.33 1.87 3.3 1.75 5.87.09 5.5 2.25 8.58 6.5 9.13l.34.02c2.96 0 4.16-3.05 5.22-5.75.81-2.05 1.8-4.6 3.06-4.6.28 0 .62.09 1.05.26 1.82.72 2.94 1.68 3.42 2.97.65 1.73.19 4.19-1.31 7.05l-.41.75c-1.65 2.96-3.52 6.31-2.68 9.15.36 1.21 1.18 2.2 2.38 2.82.61.31 1.26.48 1.93.48 2.09 0 3.69-1.55 5.1-2.92.79-.76 1.97-1.9 2.54-1.9.16 0 .49.18 1.05.79 2.11 2.06 1.36 4.64.35 7.33l-.63 1.69c-1.15 3.01-2.32 6.14.52 8.9.65.58 1.45.9 2.33.9 1.17 0 2.23-.56 3.15-1.05.46-.24 1.24-.66 1.35-.72 0 0 .09.08.25.37.44.76 1.04 3.13-2.48 9.17-1.79-1.68-4.09-3.81-7.14-6.6-8.5-7.54-18.87-19.43-30.84-35.32q-1.34-1.79-1.73-1.79c-.09 0-.18.02-.27.05-.24.09-.43.32-.48.57-.27 1.46 16.22 26.62 30.59 39.43 2.86 2.63 5.32 4.77 7.37 6.45-2.77 2.34-5.14 3.52-7.05 3.52-.48 0-.91-.09-1.27-.21-.4-.17-.57-.31-.58-.31-.06-.29.3-1.23.5-1.74.55-1.42 1.48-3.78-.37-5.48-1.16-1.18-2.55-1.75-4.1-1.75ZM22.7 349.75c.68.14 1.31.24 1.92.35 2.37.42 3.13.63 3.5 1.22-.2.18-.46.41-.66.57-1.28 1.08-4.67 3.93-1.56 8.01 1.73 2.27 4.54 3.43 8.35 3.43 2.42 0 4.72-.48 6.13-.82 1.61 3.41 2.15 3.45 2.55 3.45.27 0 .51-.13.67-.32l.32-.17c.2-.28.46-.69-.5-4.13 2.93-1.67 9.43-5.68 9.56-11.03.03-1.45-.38-2.61-1.21-3.47-1.38-1.43-3.36-1.46-4.81-1.48-.24 0-.57 0-.83-.02.1-.52.72-1.13 2.62-2.71l1.29-1.09c2.12-1.76 6.52-5.43 4.92-11.24-.81-2.89-2.76-4.48-5.52-4.48-1.31 0-2.63.35-3.8.67-.87.23-1.78.47-2.37.47-.18 0-.25-.03-.28-.08.16-.94 3.37-2.87 4.74-3.71l.98-.61c3.95-2.45 6.2-5.29 6.69-8.43.42-2.71-.5-5.4-2.64-7.89-1.61-2.16-3.47-2.62-4.75-2.62-2.73 0-5.15 1.95-7.29 3.67-.8.65-1.97 1.6-2.53 1.86-.73-.56-1.32-1.49.73-5.08 2.3-3.89 2.54-8.06.67-11.49-2.01-3.68-6.22-6-11.24-6.16l-.54-.02c-4.7 0-8.68 2.2-10.61 5.89-2.04 3.86-1.51 8.7 1.41 12.96 2.3 3.27 1.98 4.84 1.32 5.92-.67-.24-1.86-1-2.7-1.53-2.06-1.32-4.41-2.81-6.81-2.81-1.66 0-3.95.71-5.44 4.19-1.42 3.93-1.32 7.7.3 10.87 1.62 3.15 4.67 5.52 8.59 6.64.49.14.99.28 1.49.42 3.25.87 5.73 1.65 5.67 2.86-.28.24-1.54.45-2.3.57-2 .32-4.49.73-5.92 2.82-.96 1.42-1.18 3.23-.67 5.53 1.63 7.27 7.64 8.45 10.2 8.95l.35.06Zm-6.17-9.98c-.31-1.43-.07-1.93 0-2.05.34-.5 1.83-.75 2.93-.92 2.1-.34 5.6-.9 5.98-4.5.46-5.15-4.96-6.61-8.91-7.69-.49-.13-.96-.26-1.43-.4-2.72-.77-4.8-2.32-5.85-4.37-1.04-2.04-1.07-4.56-.12-7.18.58-1.37 1.07-1.37 1.28-1.37 1.09 0 2.93 1.16 4.4 2.12 1.87 1.19 3.64 2.32 5.42 2.32 1.19 0 2.25-.51 3.04-1.52 3.6-4.98.13-9.92-.98-11.52-1.98-2.89-2.39-5.92-1.13-8.32 1.16-2.22 3.6-3.49 6.66-3.49h.38c3.42.13 6.21 1.57 7.46 3.84 1.11 2.03.9 4.53-.61 7.08-1.09 1.89-4.4 7.64.82 11.19.63.46 1.37.69 2.15.69 1.91 0 3.59-1.35 5.52-2.9 1.41-1.14 3.33-2.69 4.48-2.69.17 0 .55 0 1.24.92 1.35 1.58 1.93 3.08 1.72 4.41-.28 1.77-1.87 3.6-4.62 5.32l-.94.57c-2.93 1.78-6.25 3.78-6.82 6.69-.24 1.25.06 2.5.87 3.59.61.83 1.75 1.83 3.82 1.83 1.17 0 2.36-.32 3.52-.62.95-.25 1.93-.51 2.65-.51.5 0 .85 0 1.19 1.2.77 2.79-1.2 4.72-3.46 6.6l-1.29 1.07c-2.56 2.13-5.22 4.34-3.93 8.21.84 2.41 3.41 2.45 4.94 2.45.48 0 1.24.02 1.6.11v.25c-.02 1.11-.95 3.4-6.44 6.72-.76-2.29-1.76-5.18-3.12-8.93-5.13-14.71-8.03-35.04-9.28-43.71q-.67-4.68-1.39-4.68l-.62.31c-.71 1.01.83 30.16 7.5 49.33 1.4 3.86 2.53 6.79 3.45 9.08-1.2.24-2.76.5-4.33.5-2.34 0-3.94-.55-4.78-1.65-.31-.41-.35-.61-.35-.61.08-.28.83-.9 1.23-1.25 1.15-.97 3.08-2.59 2.23-5-1.2-3.6-4.25-4.13-7.19-4.64-.56-.09-1.16-.2-1.79-.32l-.37-.08c-2.88-.55-5.77-1.45-6.69-5.5Zm2.21-95.48.25.22c.49.42.97.79 1.41 1.15 1.94 1.56 2.51 2.13 2.54 2.84-.27.07-.62.13-.89.18-1.64.31-5.99 1.15-5.32 6.19.51 4.13 4.37 7.26 11.4 9.35-.11 2.73.28 3.23.47 3.45.16.2.54.39.82.35.08.03.16.05.23.05.5 0 .82-.05 1.61-3.35 3.21-.02 10.9-.28 13.79-4.97.75-1.25.98-2.47.68-3.63-.5-1.91-2.21-2.9-3.46-3.63-.2-.12-.46-.27-.68-.41.33-.38 1.16-.62 3.46-1.06l1.77-.35c2.5-.46 8.36-1.57 9.72-7.45 1.41-5.9-3.8-7.24-6.31-7.88-.75-.2-1.97-.5-2.37-.79 0-.03.02-.04.02-.05.75-.82 4.26-.95 6.16-1.01l.91-.04c4.54-.28 7.84-1.66 9.82-4.14 1.69-2.12 2.28-4.85 1.75-8.14-.32-2.02-1.62-5.42-6.67-5.42-1.47 0-3.02.28-4.38.51-1.09.19-2.13.38-2.86.38h-.24c-.31-.89-.32-2.3 2.9-4.12 3.96-2.25 6.25-5.77 6.32-9.66.06-4.18-2.46-8.23-6.76-10.85-5.08-3.09-11.16-2.45-14.73 1.42-2.34 2.54-3.45 6.14-3.12 10.13.32 4-.2 5.26-1.53 5.96-.47-.55-1.15-1.79-1.62-2.67-1.57-2.89-3.53-6.48-7.14-6.48-1.38 0-2.77.56-4.14 1.67-3.32 2.7-5.16 6.01-5.33 9.57-.17 3.56 1.4 7.14 4.37 10.05.41.42.85.84 1.3 1.28 2.27 2.2 4.08 4.08 3.23 5.07-.5 0-1.42-.33-2.24-.63-1.24-.46-2.65-.97-4.11-.97-1.9 0-4.43.87-5.68 5.08-2.08 7.17 2.63 11.12 4.64 12.8Zm-.35-11.54c.55-1.86 1.11-1.86 1.38-1.86.67 0 1.64.35 2.57.69 1.22.44 2.48.9 3.78.9 1.51 0 2.78-.63 3.61-1.75 3.35-4.18-.9-8.3-3.72-11.02-.42-.41-.83-.81-1.25-1.24-2.08-2.04-3.17-4.41-3.07-6.66.11-2.25 1.38-4.42 3.67-6.29.75-.61 1.16-.67 1.31-.67.95 0 2.37 2.6 3.21 4.14 1.38 2.53 2.8 5.15 5.41 5.15.52 0 1.03-.12 1.42-.3 5.41-2.13 4.96-7.68 4.72-10.65-.22-2.74.46-5.12 1.94-6.73 2.16-2.34 5.84-2.62 9.1-.63 2.93 1.79 4.64 4.38 4.6 6.96-.04 2.3-1.48 4.37-4.05 5.83-6.34 3.59-5.63 7.95-4.59 10.32.5 1 1.61 2.2 4.14 2.2 1.13 0 2.34-.22 3.64-.45 1.24-.22 2.53-.45 3.6-.45 1.79 0 2.07.52 2.25 1.64.33 1.97.05 3.53-.82 4.62-1.13 1.42-3.41 2.27-6.55 2.45l-.85.03c-3.41.13-7.28.28-9.29 2.46-.85.93-1.27 2.12-1.2 3.53.28 3.29 3.56 4.13 5.74 4.68 3.45.88 3.36 1.23 3.05 2.51-.65 2.82-3.3 3.53-6.18 4.08l-1.79.35c-3.19.61-6.51 1.25-7.25 5.18-.47 2.53 1.75 3.82 3.08 4.59.4.23 1.04.6 1.31.84-.02.06-.06.13-.1.2-.61.98-2.59 2.58-8.99 2.8.5-2.45 1.12-5.67 1.92-9.92 2.62-15.13 10.1-34.11 13.29-42.23q1.81-4.59 1.32-5.08c-.13-.1-.3-.17-.47-.17-1.81 0-14.84 28.15-18.07 46.69-.82 4.38-1.34 7.66-1.66 10.17-6.02-1.93-7.22-4.15-7.38-5.37-.07-.52 0-.72 0-.72.2-.2 1.18-.39 1.71-.5 1.47-.28 3.93-.76 4.41-3.27.73-3.78-1.72-5.75-4.1-7.66-.42-.33-.86-.68-1.31-1.08l-.28-.23c-2.22-1.86-4.34-4.07-3.19-8.07Zm376.25-52.18c-.06.08-.13.16-.2.28-.42.57-.9 1.04-1.42 1.39-.68.47-.84 1.4-.39 2.08.29.42.76.65 1.24.65.29 0 .59-.09.84-.26.79-.54 1.51-1.24 2.14-2.08.23-.32.4-.55.53-.79 1.17.36 2.38.55 3.54.55 4.04 0 7.22-2.16 8.3-5.64.61-1.94-.34-3.34-1-3.86-.08-.06-.17-.07-.25-.12.19-.46.38-.93.52-1.41.98-3.12.75-6.8-.6-9.36-.54-1.03-1.24-1.8-2.02-2.24-.13-.46-.4-1.12-1.16-1.35-.76-.26-1.37.08-1.79.42-3.18-.24-7.34 3.42-8.79 8.03-.16.49-.28.97-.38 1.46-.1 0-.19-.06-.29-.06-.84.05-2.42.65-3.03 2.59-.72 2.31-.36 4.74 1.03 6.8.8 1.17 1.9 2.15 3.19 2.93Zm2.34-12.82c1.2-3.78 4.64-6.29 5.79-5.94.29.09.57.1.8.06.17.17.4.33.69.42.23.07.61.39.98 1.09.79 1.5 1.24 4.36.39 7.09-.39 1.25-1.01 2.37-1.74 3.33-.12 0-.22.02-.35.02-1.15 0-2.38-.19-3.55-.56-1.49-.47-2.69-1.15-3.52-1.78-.05-1.2.13-2.47.5-3.72Zm-3.86 4.7c1.29 1.48 3.55 2.9 6 3.67 1.46.46 3 .69 4.44.69.61 0 1.6-.05 2.56-.3-.86 1.82-2.75 2.87-5.19 2.87-.88 0-1.79-.15-2.71-.43-1.83-.57-3.35-1.63-4.26-2.98-.53-.79-1.06-2.01-.83-3.52Zm-9.77 19.42c.27-.06.55-.13.93-.26.96-.31 1.85-.76 2.64-1.35.67-.49.81-1.42.31-2.09a1.48 1.48 0 0 0-2.08-.32c-.53.39-1.15.69-1.79.9-.14.05-.24.08-.34.11-.92-4.1-3.98-7-7.99-7.1-1.94 0-2.99 1.27-3.3 2.03-.04.09-.03.2-.04.31-.49-.06-.99-.1-1.49-.11-4.85-.09-9.62 2.62-10.42 5.74-.4.24-.98.72-.98 1.53-.02.79.47 1.26.9 1.56.17.89.68 1.8 1.49 2.64 2 2.09 5.41 3.49 8.67 3.56h.34c.39 0 .78-.02 1.15-.05.02.09 0 .19.04.28.28.79 1.31 2.13 3.34 2.17h.2c4.74.02 8.28-4.02 8.42-9.57Zm-13.4 4.19c-2.86-.06-5.41-1.42-6.59-2.64-.54-.57-.73-1.04-.73-1.26.02-.31-.05-.57-.17-.8.13-.21.2-.46.2-.77.04-1.24 3.54-3.67 7.47-3.6 1.33.03 2.59.32 3.71.76.32.99.57 2.31.54 3.86-.04 1.6-.36 2.93-.75 3.91-1.13.38-2.39.57-3.7.54Zm5.58 2.38c1.11-1.68 1.8-4.27 1.86-6.76.05-2.55-.56-5.15-1.55-6.84 2.75.48 4.63 3.26 4.53 6.91-.08 3.64-2.08 6.35-4.84 6.69Zm24.13 87.24c1.24.76 2.58 1.13 4 1.13 3.2 0 6.28-1.94 8.25-5.18.27.08.54.15.94.23.65.14 1.28.2 1.93.2.35 0 .68-.02 1.03-.06.82-.09 1.4-.83 1.31-1.66-.09-.82-.85-1.42-1.66-1.31-.65.08-1.31.05-1.98-.11-.14-.03-.24-.05-.35-.08.45-1.43.62-2.9.44-4.29-.34-2.45-1.66-4.51-3.75-5.76-.63-.39-1.3-.58-1.97-.58-1.12 0-1.85.52-1.99.64-.08.06-.13.17-.19.24-.39-.3-.82-.58-1.25-.84-4.11-2.48-9.64-2.49-11.89-.18-.47.02-1.2.13-1.61.84-.41.68-.22 1.33 0 1.8-.29.86-.31 1.9-.03 3.03.7 2.81 2.96 5.73 5.77 7.4.42.26.87.49 1.31.71-.03.09-.09.17-.11.26-.13.83.09 2.51 1.82 3.56Zm10.93-10.72c.21 1.61-.21 3.41-1.21 5.07-1.82 3.03-5 4.49-7.55 3.4 1.74-.87 3.64-2.71 4.98-4.93 1.32-2.2 2.08-4.75 2.06-6.72 1.17.97 1.59 2.23 1.72 3.18Zm-16.81-1.92c-.18-.77-.11-1.26 0-1.46.17-.26.24-.52.24-.77.21-.13.42-.31.56-.58.64-1.05 4.88-1.45 8.28.6 1.13.68 2.1 1.52 2.86 2.45-.2 1.03-.65 2.32-1.46 3.67-.83 1.35-1.77 2.35-2.58 3.02-1.18-.24-2.38-.69-3.49-1.36-2.44-1.47-3.99-3.93-4.41-5.57Zm37.94-6.03c-.09-.07-.15-.16-.24-.2-.14-.07-.64-.28-1.34-.28-.66 0-1.63.18-2.55 1.07-1.55 1.45-2.41 3.35-2.46 5.48-.05 1.69.42 3.43 1.33 5.04-.09.05-.17.09-.31.14-.6.28-1.24.45-1.91.52-.82.08-1.42.81-1.35 1.63.08.78.72 1.35 1.49 1.35.05 0 .09 0 .15-.02.99-.09 1.96-.35 2.86-.76.37-.17.62-.29.87-.43 2.11 2.23 4.82 3.5 7.47 3.5 2.02 0 3.87-.74 5.34-2.12 1.48-1.4 1.35-3.08 1.03-3.86-.04-.09-.11-.14-.17-.21.39-.31.77-.63 1.14-.97 2.39-2.24 4-5.56 4.08-8.45.04-1.17-.18-2.17-.65-2.95.12-.45.2-1.16-.35-1.75-.54-.6-1.24-.61-1.77-.51-2.64-1.8-8.06-.63-11.6 2.68-.37.34-.72.69-1.05 1.08Zm-1.35 11.46c-1.49-1.58-2.32-3.52-2.26-5.3.03-1.08.39-2.05 1.02-2.86.38 1.92 1.65 4.22 3.42 6.12 1.75 1.86 4.01 3.28 5.9 3.78-2.27 1.59-5.68.81-8.09-1.74Zm12.36-12.75c.21.24.46.4.71.48.06.24.18.49.4.72.17.17.34.64.31 1.42-.05 1.7-1.05 4.41-3.13 6.37-.94.89-2.01 1.59-3.12 2.07-.97-.5-2.1-1.28-3.15-2.41-1.08-1.15-1.79-2.32-2.21-3.28.55-1.07 1.32-2.11 2.29-3.01 2.88-2.71 7.1-3.22 7.91-2.38Zm-45.67 96.62c-.68-1.18-1.84-1.89-3.11-1.89-.08 0-.31.02-.4.02-.11.02-.19.09-.28.13-.2-.46-.43-.9-.69-1.34-2.41-4.17-7.22-6.84-10.31-5.92-.42-.22-1.13-.47-1.8-.05-.69.39-.85 1.05-.88 1.58-.68.61-1.18 1.49-1.49 2.64-.76 2.8-.17 6.44 1.46 9.27.24.45.52.85.82 1.26-.08.06-.17.09-.21.17-.53.66-1.15 2.23-.13 3.98 1.44 2.5 4.02 3.95 7.07 3.95 1.87 0 3.81-.54 5.59-1.57.2.2.41.4.71.65.76.66 1.6 1.18 2.51 1.56.18.08.38.13.57.13.58 0 1.14-.35 1.38-.93.31-.77-.06-1.64-.82-1.96-.61-.24-1.18-.6-1.69-1.05-.12-.1-.19-.17-.27-.23 3.02-2.94 3.93-7.03 1.97-10.41Zm-16.08-4.04c.2-.77.5-1.16.71-1.28.28-.15.45-.35.58-.54.24-.02.5-.08.77-.23 1.06-.61 4.96 1.08 6.96 4.51.66 1.15 1.09 2.36 1.31 3.54-.68.8-1.69 1.71-3.04 2.49-1.37.79-2.72 1.17-3.78 1.35-.9-.76-1.7-1.72-2.34-2.84-1.43-2.47-1.61-5.36-1.17-6.99Zm10.27 13.66c-1.35.79-2.79 1.19-4.15 1.19-1.72 0-3.13-.65-4.09-1.85 1.97.09 4.55-.66 6.74-1.93 2.24-1.3 4.11-3.14 5.04-4.87 1.15 2.89-.82 5.88-3.55 7.46Zm38.85 1.96c-1.44-2.86-6.74-4.47-11.44-3.31-.49.12-.97.27-1.44.44-.04-.09-.06-.2-.11-.28-.54-.79-2.06-1.66-3.78-1.23-2.35.6-4.22 2.16-5.26 4.42-.6 1.27-.86 2.73-.85 4.23-.1 0-.2-.02-.35-.03-.69-.06-1.32-.21-1.92-.49-.76-.33-1.64 0-1.98.77-.34.76 0 1.63.76 1.97.9.41 1.86.65 2.88.74.39.04.68.06.94.06h.02c1.16 4.59 4.61 7.69 8.58 7.69.65 0 1.3-.08 1.94-.24 1.97-.49 2.68-2.03 2.79-2.85.02-.1-.03-.2-.03-.3.49-.07.98-.16 1.46-.28 3.18-.8 6.19-2.91 7.68-5.4.61-1 .89-1.99.87-2.9.32-.33.74-.92.54-1.68-.17-.82-.79-1.16-1.29-1.35Zm-19.63 6.49c-.48-1.87-.37-3.72.31-5.2.41-.87 1.16-1.96 2.57-2.53-.59 1.86-.61 4.54 0 7.02.58 2.32 1.83 4.76 3.31 6.18-2.82.31-5.33-1.96-6.2-5.46Zm16.95-2.12c-.87 1.46-3.08 3.34-5.84 4.03-1.26.32-2.53.42-3.74.29-.58-.87-1.2-2.1-1.58-3.64-.39-1.5-.43-2.86-.34-3.89 1.01-.68 2.16-1.24 3.45-1.56 3.84-.95 7.78.66 8.08 1.81.06.31.2.55.37.74-.06.24-.08.52 0 .82.07.24 0 .73-.41 1.41Zm-93.88 65.99c-.05-.13-.09-.24-.13-.33 4.07-1.09 6.85-4.2 6.81-8.11-.02-2.02-1.35-3.06-2.13-3.34-.11-.04-.21-.02-.31-.04.04-.49.07-1 .06-1.5-.08-4.81-2.97-9.51-6.11-10.2-.25-.37-.72-.92-1.52-.92-.8.04-1.29.5-1.57.96-.89.2-1.77.75-2.59 1.57-2.02 2.08-3.3 5.53-3.27 8.8.02.5.05 1 .11 1.49-.09.02-.18 0-.28.04-.79.31-2.08 1.39-2.06 3.41.06 4.73 4.26 8.28 9.77 8.28h.13c.07.26.16.54.29.9a8.8 8.8 0 0 0 1.45 2.6c.29.37.72.56 1.16.56.32 0 .66-.11.94-.33.64-.52.74-1.46.22-2.11a5.37 5.37 0 0 1-.97-1.72Zm-5.38-19.83c.55-.56 1.01-.77 1.24-.77.31 0 .57-.08.79-.2.2.11.45.17.72.17h.07c1.24 0 3.81 3.39 3.86 7.35.02 1.32-.22 2.59-.62 3.74-1 .37-2.36.66-4 .69-1.5 0-2.79-.27-3.75-.6-.43-1.13-.69-2.38-.72-3.71-.03-2.84 1.23-5.45 2.41-6.67Zm-4.57 12.34c1.64 1 4.14 1.61 6.81 1.61 2.6-.04 5.13-.74 6.77-1.79-.37 2.77-3.08 4.73-6.73 4.78h-.14c-3.1 0-6.25-1.57-6.72-4.59Zm30.98 17.95c-.49-.13-.97-.23-1.46-.31 0-.11.05-.2.03-.31-.08-.84-.76-2.38-2.7-2.91-.68-.19-1.39-.28-2.08-.28-3.06 0-5.82 1.86-7.48 4.82-.09-.05-.17-.11-.28-.18-.56-.38-1.05-.84-1.46-1.37-.49-.66-1.43-.79-2.09-.29s-.79 1.43-.29 2.09c.61.8 1.34 1.48 2.16 2.05.32.22.57.39.81.51-.76 2.86-.48 5.77.79 7.99 1.06 1.84 2.7 3.11 4.74 3.67.37.09.73.14 1.09.14 1.31 0 2.29-.69 2.74-1.29.06-.08.06-.17.11-.26a13.293 13.293 0 0 0 4.92.93c2.13 0 4.22-.48 5.83-1.41 1.01-.58 1.75-1.3 2.17-2.12.45-.13 1.09-.44 1.31-1.23.21-.77-.14-1.35-.49-1.75.15-3.19-3.7-7.21-8.36-8.5Zm-9.2 12.34c-.94-.41-1.72-1.1-2.25-2.03-.89-1.55-1.06-3.66-.49-5.77.87-3.19 3.18-5.36 5.74-5.36.18 0 .39.02.57.04-1.5 1.41-2.8 3.82-3.45 6.11-.66 2.47-.69 5.14-.13 7.01Zm14.52-3.08c-.17.18-.31.42-.39.72-.06.24-.37.62-1.06 1.02-1.48.83-4.31 1.41-7.07.65-1.26-.34-2.4-.91-3.4-1.62-.08-1.04-.02-2.38.4-3.9.42-1.52 1.05-2.73 1.63-3.59 1.21-.1 2.5.02 3.77.36 3.82 1.05 6.47 4.38 6.15 5.54-.09.29-.09.57-.04.82Zm-40.91-16.85c-4.15 0-7.87 2.42-10.23 6.66-1.28 2.37-2.42 3.5-3.45 3.5-.19 0-.41-.03-.65-.1-.09-.7.1-2.22.23-3.27.38-3.05.81-6.51-1.13-8.9-1.01-1.25-2.49-1.97-4.24-2.11-7.56-1.03-12.05 3.54-12.08 12.2v1.2c0 1.66.02 5.52-.83 6.14-.34-.26-.77-1.69-1.02-2.54-.72-2.38-1.9-6.36-6.14-6.36-.65 0-1.36.11-2.11.31-5.89 1.68-6.73 7.44-7.14 10.21l-.24 1.69c-.36 2.64-.57 3.49-1 3.82-.17-.24-.35-.54-.5-.77-.87-1.39-2.2-3.49-4.7-3.49-.9 0-1.83.29-2.75.87-4.4 2.82-4.59 10.09-4.5 13.72-9.9 1.83-9.86 2.6-9.8 3.28 0 .06.02.12.03.17 0 .11.02.21.05.32.23.72 1.15.77 2.16.77 1.61 0 4.37-.25 8.22-.77 2.34 6.9 5.66 10.66 9.9 11.1.28.04.56.05.82.05 4.42 0 5.02-3.93 5.26-5.62.05-.27.11-.64.17-.91h.02c.82 0 1.58.83 2.98 2.42.42.47.85.96 1.32 1.47l.24.26c1.43 1.55 4.41 4.79 9.25 4.79 1.27 0 2.6-.23 3.93-.68 2.27-.77 3.73-1.91 4.44-3.49 1.06-2.34.09-4.72-.69-6.62-.3-.72-.8-1.94-.76-2.24.28-.21.48-.24.63-.24 1.25 0 3.42 2.05 5 3.53.39.37.77.72 1.14 1.07 2.82 2.58 6.19 4 9.5 4 2.79 0 6.85-.98 10.49-5.74 1.31-1.86 1.74-3.66 1.29-5.37-.79-3-3.92-4.5-6.7-5.82-.91-.45-2.23-1.08-2.79-1.52.61-1.34 1.72-2.13 4.71-2.13.39 0 .79.02 1.19.03 5.48.39 10-1.89 12.17-5.95 2.05-3.81 1.64-8.51-1.06-12.59-2.71-4.04-6.58-6.36-10.65-6.36Zm7.76 16.84c-1.24 2.31-3.79 3.64-7.03 3.64-.28 0-.57-.02-.9-.04-.51-.04-1.01-.06-1.49-.06-1.74 0-7.04 0-9.06 5.44-1.35 3.61 2.45 5.43 5.21 6.75 1.6.77 4.03 1.93 4.29 2.93.13.49-.34 1.24-.56 1.57-1.95 2.55-4.33 3.89-6.88 3.89-2.18 0-4.47-1.01-6.47-2.82-.36-.33-.72-.67-1.09-1.01-2.47-2.34-5.04-4.76-8.07-4.76-1.19 0-2.31.39-3.34 1.15-2.88 2.2-1.51 5.54-.68 7.54.45 1.11 1.01 2.48.76 3.06-.17.36-.84.78-1.8 1.11-.87.29-1.72.45-2.49.45-2.86 0-4.73-2.02-5.95-3.35l-.27-.3c-.45-.47-.85-.93-1.24-1.36-1.79-2.03-3.47-3.93-6.33-3.93-.48 0-.97.06-1.45.17-2.56.53-2.95 3.07-3.17 4.56-.09.54-.23 1.55-.42 1.75 0 0-.29.09-.77.04-1.57-.17-3.81-1.61-5.86-7.3 1.13-.17 2.31-.35 3.57-.55 19.15-3.38 46.24-16.28 46.72-17.69.03-.11.05-.21.03-.32 0-.09-.03-.16-.06-.23-.04-.07-.08-.14-.13-.2-.14-.16-.34-.24-.55-.24s-.21 0-2.37.85c-6.88 2.71-27.84 11-44.38 13.9-1.27.2-2.42.39-3.5.57-.03-6.52 1.48-8.54 2.43-9.16.13-.08.22-.13.26-.16.28.23.72.94.99 1.38.9 1.43 2.14 3.52 4.75 2.97 4.03-.9 4.52-4.41 4.99-7.8l.24-1.65c.45-2.99 1.08-5.74 3.93-6.55 1.33-.37 1.72-.36 2.73 3.03.69 2.3 1.63 5.44 4.9 5.7 1.5.13 2.74-.34 3.71-1.31 2.06-2.06 2.04-5.9 2.02-9.3v-1.16c.04-7.88 4.04-7.88 5.54-7.88.46 0 .94.04 1.55.13.94.08 1.18.37 1.26.47.74.91.41 3.58.17 5.52-.39 3.11-.82 6.62 2.14 7.83.92.38 1.83.57 2.71.57 3.77 0 6.03-3.34 7.38-5.82 1.56-2.79 3.79-4.34 6.3-4.34s5.06 1.6 6.9 4.39c1.78 2.66 2.09 5.64.85 7.96Zm70.47-56.61c-.8 0-1.63.05-2.45.09-1.32.06-2.65.08-3.12 0-.11-1.3.42-2.58 4.41-4.37 4.56-2.39 7.29-6.48 7.27-10.95-.02-4.28-2.54-8.14-6.78-10.32-5.39-2.78-11.33-2.19-14.71 1.36-2.13 2.23-3.15 5.37-2.99 8.88-.06 3.97-1.29 4.55-2.09 4.71-.4-.54-.93-1.91-1.31-2.86-1.24-3.14-2.93-7.45-7.24-7.45-.86 0-1.79.2-2.68.57-3.04 1.18-5.06 3.06-6 5.58-1.13 3.01-.6 6.62 1.58 10.79l.42.76c.67 1.19 2.64 4.73 2.17 5.74-.46-.23-1.33-1.08-1.87-1.6-1.46-1.42-3.27-3.18-5.67-3.18-1.53 0-2.97.74-4.17 2.06-4.38 4.29-2.3 9.79-1.41 12.14l.63 1.68c.83 2.2 1.05 3.04.92 3.53l-.65-.34c-1-.52-2.23-1.18-3.63-1.18-1.16 0-2.79.45-3.94 2.52-2.86 4.89 1.45 12.06 3.03 14.63-2.55 2.53-2.48 2.8-2.35 3.23.04.11.11.26.26.38.06.11.13.2.2.26.14.11.5.21.68.21.64 0 1.79-.57 3.38-1.68 2.16 1.94 6.32 5.22 10.69 5.22 1.02 0 2.01-.18 2.98-.56 4.81-2 3.16-6.23 2.54-7.81-.12-.28-.25-.65-.33-.92.26-.17.46-.18.66-.18.71 0 1.8.39 3.07.83.51.18 1.05.39 1.64.57l.41.13c1.26.42 3.15 1.05 5.38 1.05 3.11 0 5.8-1.23 8.1-3.75 1.49-1.8 2.13-3.52 1.95-5.22-.28-2.52-2.23-4.08-3.8-5.33-.61-.49-1.63-1.29-1.71-1.68.1-.28.23-.61 1.39-.61 1.29 0 3.03.46 4.72.89.6.17 1.19.31 1.71.44 1.38.36 2.74.54 4.04.54 6.49 0 11.16-4.43 12.21-11.6.28-2.12-.14-3.82-1.24-5.08-1.64-1.85-4.24-2.1-6.31-2.1Zm3.1 6.58c-.88 6.07-4.76 8.88-10.71 7.33-.54-.13-1.09-.28-1.66-.42-1.95-.51-3.97-1.04-5.84-1.04-3.72 0-5.1 2.2-5.59 3.49-1.28 3.3 1.36 5.41 3.12 6.78.9.74 2.05 1.64 2.13 2.3.04.42-.3 1.12-.87 1.81-1.35 1.48-2.9 2.2-4.72 2.2-1.5 0-2.92-.47-3.96-.82l-.44-.14c-.54-.18-1.05-.37-1.53-.53-1.65-.59-3.09-1.1-4.56-1.1-1.55 0-2.95.58-4.1 1.7-1.88 1.75-.96 4.11-.41 5.52.19.5.56 1.46.51 1.7-.03.05-.19.18-.54.34-2.05.79-4.89-.35-8.36-3.29 2.05-1.68 4.5-3.82 7.37-6.44 14.38-12.81 30.87-37.97 30.61-39.43-.05-.25-.23-.49-.48-.57a.808.808 0 0 0-.27-.05q-.4 0-1.74 1.77c-11.97 15.9-22.34 27.78-30.85 35.34-3.04 2.79-5.34 4.92-7.12 6.59-3.52-6.04-2.93-8.42-2.45-9.24.07-.12.13-.2.14-.24.34.08 1.01.43 1.44.66.93.49 1.98 1.05 3.15 1.05.88 0 1.69-.31 2.37-.94 2.81-2.71 1.63-5.83.49-8.85l-.63-1.68c-1.01-2.71-1.76-5.29.45-7.45.46-.5.79-.68.94-.68.58 0 1.77 1.16 2.55 1.91 1.41 1.37 3.01 2.92 5.1 2.92.67 0 1.31-.17 1.94-.49 1.2-.61 2.01-1.6 2.38-2.82.84-2.85-1.03-6.2-2.68-9.15l-.39-.69c-1.52-2.91-1.98-5.37-1.34-7.1.49-1.29 1.6-2.26 3.47-2.99.39-.17.73-.24 1-.24 1.25 0 2.26 2.56 3.06 4.61 1.06 2.7 2.26 5.75 5.22 5.75l.43-.03c4.15-.54 6.33-3.63 6.41-9.28-.13-2.42.49-4.39 1.75-5.72 2.03-2.13 5.77-2.34 9.39-.46 2.77 1.42 4.35 3.74 4.36 6.35.02 2.75-1.81 5.37-4.74 6.9-3.64 1.62-7.7 4.18-6.82 9.46.28 2.31 2.15 3.49 5.52 3.49.69 0 1.43-.04 2.2-.08.73-.04 1.48-.08 2.22-.08 2.12 0 2.74.37 2.93.58.18.23.24.79.15 1.5Zm37.24-107.12c-2.41 0-4.75 1.49-6.81 2.81-.83.53-2.03 1.29-2.7 1.53-.67-1.13-.94-2.7 1.34-5.94 2.9-4.23 3.43-9.07 1.4-12.94-1.94-3.7-5.91-5.89-10.63-5.89l-.54.02c-5.02.17-9.22 2.48-11.24 6.16-1.87 3.43-1.63 7.61.66 11.47 2.02 3.51 1.5 4.49.76 5.09-.61-.28-1.76-1.2-2.54-1.84-2.14-1.72-4.56-3.67-7.3-3.67-1.27 0-3.14.46-4.64 2.49-2.23 2.62-3.15 5.31-2.75 8.02.49 3.13 2.74 5.98 6.7 8.43l.98.6c1.37.83 4.58 2.77 4.72 3.75 0 0-.08.03-.26.03-.58 0-1.49-.24-2.37-.47-1.16-.31-2.49-.67-3.79-.67-2.75 0-4.71 1.6-5.52 4.49-1.61 5.81 2.81 9.47 4.93 11.24l1.27 1.08c1.92 1.59 2.53 2.2 2.63 2.7-.28.02-.59.02-.84.02-1.45.02-3.44.05-4.81 1.48-.83.86-1.24 2.03-1.21 3.49.13 5.35 6.62 9.35 9.56 11.01-.95 3.45-.69 3.86-.5 4.13l.7.36.08-.02.2.14c.41 0 .94-.02 2.55-3.43 1.42.34 3.71.81 6.13.81 3.8 0 6.62-1.15 8.36-3.42 3.11-4.08-.28-6.94-1.57-8.01-.2-.17-.46-.4-.66-.58.37-.58 1.12-.8 3.5-1.21.61-.11 1.24-.21 1.91-.35l.35-.08c2.56-.5 8.58-1.68 10.2-8.95.5-2.3.28-4.11-.68-5.52-1.43-2.11-3.92-2.5-5.92-2.82-.76-.13-2.01-.32-2.23-.47-.12-1.31 2.36-2.08 5.61-2.96.5-.14 1-.28 1.49-.42 3.93-1.13 6.98-3.48 8.61-6.64 1.61-3.17 1.72-6.93.24-11-1.46-3.33-3.75-4.04-5.41-4.04Zm-32.12 58.07s.08-.09.12-.14c.02.03.07.06.09.11l-.2.03Zm33.28-45.06c-1.05 2.05-3.12 3.6-5.85 4.38-.46.13-.94.26-1.42.39-3.94 1.07-9.35 2.53-8.9 7.71.37 3.56 3.88 4.12 5.98 4.47 1.09.17 2.58.42 2.93.91.08.13.31.61 0 2.04-.9 4.08-3.81 4.96-6.7 5.53l-.37.07c-.63.13-1.22.23-1.79.34-2.94.5-5.99 1.04-7.18 4.61-.86 2.45 1.06 4.06 2.21 5.03.41.35 1.16.98 1.23 1.23 0 0-.02.2-.35.63-.83 1.1-2.45 1.66-4.78 1.66-1.57 0-3.13-.26-4.33-.51.93-2.28 2.05-5.22 3.45-9.07 6.66-19.17 8.21-48.33 7.49-49.33l-.61-.31q-.73 0-1.4 4.66c-1.24 8.69-4.14 29-9.28 43.71-1.37 3.76-2.38 6.66-3.13 8.95-5.49-3.33-6.4-5.61-6.44-6.72v-.26c.36-.09 1.12-.11 1.59-.11 1.53-.02 4.1-.06 4.96-2.49 1.27-3.83-1.38-6.04-3.94-8.17l-1.27-1.07c-2.27-1.88-4.24-3.81-3.46-6.6.33-1.2.69-1.2 1.18-1.2.72 0 1.71.26 2.65.5 1.16.31 2.34.63 3.51.63 2.06 0 3.21-1.01 3.79-1.81.83-1.11 1.13-2.37.87-3.63-.56-2.9-3.89-4.9-6.81-6.68l-.94-.56c-2.75-1.72-4.35-3.55-4.63-5.32-.2-1.35.37-2.83 1.81-4.53.6-.8.98-.8 1.15-.8 1.14 0 3.07 1.55 4.47 2.68 1.94 1.56 3.61 2.91 5.52 2.91.78 0 1.52-.24 2.08-.66 5.27-3.58 1.97-9.35.87-11.25-1.49-2.53-1.7-5.04-.59-7.06 1.24-2.28 4.04-3.72 7.45-3.83l.39-.02c3.06 0 5.48 1.27 6.66 3.5 1.26 2.4.85 5.42-1.12 8.29-1.15 1.62-4.61 6.55-.94 11.62.73.93 1.79 1.46 2.98 1.46 1.79 0 3.55-1.14 5.42-2.34 1.48-.94 3.3-2.11 4.4-2.11.2 0 .69 0 1.24 1.23 1.01 2.74.99 5.27-.06 7.29Zm-30.83-126.44c-3.58-3.88-9.65-4.52-14.74-1.42-4.3 2.62-6.81 6.68-6.75 10.85.07 3.89 2.37 7.42 6.33 9.67 3.3 1.87 3.19 3.3 2.9 4.11h-.24c-.74 0-1.78-.18-2.87-.38-1.37-.24-2.9-.51-4.38-.51-5.06 0-6.35 3.4-6.67 5.41-.54 3.28.05 6.03 1.75 8.14 1.97 2.47 5.28 3.86 9.86 4.14l.87.03c1.89.07 5.41.2 6.15 1.01 0 0 .02.02.02.05-.4.28-1.61.6-2.37.79-2.5.64-7.71 1.97-6.32 7.87 1.38 5.9 7.23 6.99 9.72 7.46l1.77.35c2.31.44 3.13.68 3.47 1.06-.21.14-.49.29-.69.41-1.24.72-2.97 1.72-3.45 3.63-.3 1.16-.07 2.4.68 3.67 2.88 4.67 10.58 4.94 13.78 4.96.79 3.33 1.12 3.34 1.62 3.34.09 0 .17-.02.24-.03.2-.02.63-.17.79-.37.2-.22.58-.72.47-3.45 7.03-2.07 10.89-5.21 11.39-9.33.68-5.06-3.67-5.89-5.32-6.2-.27-.05-.61-.12-.89-.19.03-.7.6-1.27 2.55-2.84.44-.35.9-.73 1.41-1.15l.25-.21c2.01-1.69 6.72-5.64 4.65-12.82-1.24-4.19-3.77-5.07-5.68-5.07-1.46 0-2.86.51-4.1.97-.82.3-1.74.62-2.37.55-.74-.91 1.08-2.8 3.34-5 .45-.43.88-.86 1.27-1.25 3.01-2.94 4.56-6.52 4.41-10.08-.17-3.56-2.01-6.87-5.33-9.57-1.37-1.11-2.77-1.67-4.13-1.67-3.61 0-5.58 3.6-7.14 6.48-.48.87-1.15 2.12-1.63 2.67-1.31-.65-1.86-1.9-1.53-5.96.32-4.01-.79-7.61-3.12-10.15Zm3.27 20.39c.49.22 1 .33 1.52.33 2.61 0 4.04-2.62 5.41-5.15.84-1.55 2.26-4.15 3.21-4.15.14 0 .57.06 1.31.67 2.31 1.87 3.58 4.05 3.67 6.29.11 2.27-.98 4.63-3.09 6.7-.39.39-.81.79-1.23 1.2-2.81 2.73-7.07 6.85-3.77 10.97.88 1.19 2.15 1.81 3.67 1.81 1.29 0 2.55-.46 3.77-.9.93-.34 1.9-.69 2.57-.69.27 0 .83 0 1.37 1.84 1.16 4.03-.95 6.22-3.23 8.14l-.26.23c-.46.39-.9.74-1.32 1.08-2.38 1.91-4.82 3.88-4.1 7.65.48 2.53 2.93 3 4.41 3.28.52.1 1.5.29 1.71.49 0 0 .08.19 0 .75-.16 1.21-1.36 3.43-7.38 5.35-.31-2.49-.83-5.77-1.65-10.15-3.24-18.54-16.27-46.7-18.09-46.7-.2 0-.39.08-.53.22q-.42.42 1.4 5.03c3.19 8.1 10.65 27.08 13.28 42.23.8 4.25 1.42 7.45 1.92 9.91-6.4-.22-8.39-1.81-8.99-2.78-.05-.09-.09-.17-.11-.23.26-.25.89-.61 1.29-.84 1.34-.77 3.56-2.05 3.08-4.59-.75-3.92-4.05-4.56-7.25-5.17l-1.8-.35c-2.89-.54-5.53-1.26-6.19-4.08-.3-1.27-.39-1.62 3.06-2.5 2.18-.56 5.46-1.4 5.74-4.77.06-1.32-.35-2.52-1.2-3.45-2.01-2.2-5.88-2.34-9.29-2.46l-.82-.03c-3.17-.19-5.45-1.04-6.59-2.46-.87-1.09-1.15-2.64-.82-4.63.18-1.12.46-1.64 2.24-1.64 1.09 0 2.37.23 3.6.45 1.3.23 2.52.45 3.65.45 2.52 0 3.64-1.19 4.18-2.29.99-2.28 1.71-6.63-4.64-10.22-2.56-1.46-4.01-3.53-4.04-5.83-.05-2.57 1.68-5.17 4.59-6.96 3.27-1.99 6.95-1.71 9.1.63 1.48 1.61 2.17 4 1.94 6.73-.21 2.96-.66 8.5 4.66 10.59Zm-87.41-91.54c-2.47 4.38-2.73 8.96-.7 12.57 1.91 3.4 5.65 5.44 10.31 5.58 3.93.02 4.47 1.22 4.59 2.13-.54.36-1.92.84-2.87 1.16-2.79.96-5.92 2.05-7.22 4.77-.69 1.46-.71 3.11-.08 4.82 2.2 6.83 8.24 8.95 16.15 5.17l.79-.4c1.84-.94 4.15-2.11 5.48-2.11.24 0 .32.02.37.09-.2.44-1.13 1.31-1.68 1.86-1.49 1.43-3.37 3.2-3.43 5.67-.03 1.48.6 2.91 1.82 4.19 1.74 1.96 3.98 2.95 6.66 2.95 2.15 0 4.11-.66 5.42-1.1l1.86-.62c1.53-.52 2.83-1.01 3.48-.81-.13.24-.29.51-.42.73-.75 1.24-1.76 2.95-1.26 4.87.29 1.16 1.09 2.12 2.36 2.87 1.15.65 2.49.98 4 .98 3.53 0 7.29-1.71 10.06-3.2 2.12 2.3 2.47 2.33 2.79 2.33.2.03.43-.06.61-.23l.21-.03.2-.42c.16-.32.39-.86-1.24-3.5 5.32-5.32 7.23-10.04 5.66-14-1.18-3.03-3.41-3.49-4.62-3.49-1.13 0-2.14.34-3.04.65-.24.09-.56.19-.82.27-.34-.68-.13-1.45.8-3.8.2-.49.4-1 .6-1.55l.13-.32c.93-2.45 3.12-8.21-2.16-13.53-1.63-1.53-3.2-2.27-4.82-2.27-2.68 0-4.39 1.98-5.76 3.58-.51.6-1.37 1.59-1.76 1.64-1.09-.46-.42-3.01.5-6.05.18-.61.37-1.19.5-1.72 1.18-3.93.87-7.61-.92-10.63-1.84-3.09-5.08-5.19-9.43-6.1-2.81-.49-4.67.54-5.54 1.41-2.03 2.04-2 5.37-1.97 8.29 0 .99.02 2.42-.13 3.13-1.41 0-2.61-.75-4.26-4.33-2.13-4.97-6.21-7.95-10.9-7.95-4.15-.02-8.01 2.4-10.31 6.46Zm3.9 2.21c1.49-2.63 3.9-4.21 6.42-4.21 2.84 0 5.37 1.96 6.81 5.28 1.58 3.46 3.82 7 8.38 7 .28 0 .58-.02.87-.04 3.78-.35 3.75-4.54 3.72-7.61-.02-1.75-.03-4.38.68-5.1.06-.06.21-.22.82-.22.24 0 .5.02.71.06 3.01.62 5.23 2 6.4 3.98 1.14 1.91 1.31 4.34.49 7.08-.16.54-.31 1.09-.49 1.65-1.15 3.76-2.87 9.44 1.99 11.47.61.27 1.22.4 1.84.4 2.3 0 3.85-1.8 5.09-3.24.78-.9 1.74-2.02 2.37-2.02.18 0 .74.1 1.69 1 2.95 2.97 2.16 5.95 1.1 8.74l-.13.35c-.19.52-.39 1.01-.56 1.47-1.1 2.79-2.23 5.69.17 8.71.49.59 1.38 1.3 2.82 1.3.92 0 1.79-.29 2.63-.57.57-.19 1.22-.41 1.69-.41 0 0 .17.13.37.65.47 1.18.5 3.83-4.08 8.61-1.49-2.04-3.53-4.67-6.32-8.09-10.61-12.93-28.91-25.87-34.96-30.14-2.63-2.09-2.79-2.09-3.08-2.09h-.31l-.46.47.02.35q.04.42 2.76 2.34l.18.13c6.99 5.59 22.83 19.35 32.79 31.53 2.68 3.29 4.74 5.77 6.33 7.64-1.9.98-4.72 2.19-7.03 2.19-.74 0-1.34-.13-1.77-.37-.11-.06-.17-.11-.22-.15.1-.35.49-1 .74-1.41.78-1.31 2.1-3.52.49-5.48-1.09-1.37-2.5-2.07-4.22-2.07-1.45 0-2.92.5-4.63 1.08l-1.86.62c-1.09.36-2.58.87-4 .87s-2.43-.46-3.35-1.51c-.41-.42-.65-.81-.64-1.04 0-.61 1.22-1.76 2.04-2.53 1.61-1.55 4.08-3.89 2.69-6.94-.84-1.77-2.45-2.74-4.47-2.74-2.41 0-5.11 1.38-7.51 2.6l-.72.36c-1.97.94-3.78 1.43-5.24 1.43s-3.54-.41-4.71-4.03c-.34-.94-.17-1.31-.1-1.42.49-1.03 2.87-1.86 4.63-2.45 2.72-.94 6.1-2.1 5.92-5.33-.2-3.04-1.95-6.66-9.02-6.69-3.04-.09-5.33-1.27-6.48-3.3-1.24-2.21-.98-5.18.7-8.16ZM115.69 339.45l10.07-26.44h-5.7l-5.29 13.73a84.25 84.25 0 0 0-2.19 6.81h-.06c-.65-2.45-1.37-4.78-2.19-6.92L105.19 313h-6.06l10.13 26.44h6.41Zm32.65-4.39h-10.07v-7.11h9.61v-4.18h-9.61v-6.46h10.07V313h-15.57v26.45h15.57v-4.39zm19.68 4.39v-21.78h7.33V313H155.2v4.67h7.33v21.78h5.49zm30.77-22.14V313h-15.56v26.45h15.56v-4.39h-10.06v-7.11h9.61v-4.18h-9.61v-6.46h10.06zm26.6 9.77L216.48 313h-7.32v26.45h5.34l-.05-13.84c0-2.44-.05-4.07-.16-5.54h.05c.71 1.57 1.68 3.45 2.7 5.04l9.1 14.34h7.32v-26.44h-5.33l.05 11.64c0 3.41.06 5.95.15 7.62h-.04c-.86-1.83-1.87-3.57-2.9-5.19Zm24.42 8.29c-2.23 0-4.32-.42-5.85-1.01l-.2 4.93c1.48.35 3.61.66 5.44.66 6.77 0 11.45-3.51 11.45-8.91 0-8.29-11.8-6.31-11.8-10.83 0-1.99 1.48-3.31 4.82-3.31 1.53 0 3.62.3 5.05.76l.2-4.67c-1.48-.26-3.51-.46-5.04-.46-6.98 0-10.84 3.3-10.84 8.28 0 8.6 11.64 6.16 11.64 10.84 0 2.59-2.38 3.71-4.87 3.71ZM270.25 313v26.45h5.5v-12.43l9.81 12.43h7.27l-11.38-13.74L292.28 313h-6.77l-9.76 11.78V313h-5.5zm34.35 21.29h11.03l1.88 5.15h6.11l-9.98-26.45h-6.45l-10.01 26.46h5.48l1.94-5.15Zm4.16-11.44c.51-1.38 1.01-2.85 1.34-4.11h.04c.36 1.22.87 2.79 1.38 4.17l2.75 7.42h-8.35l2.84-7.47Zm31.45-10.01c-3.12 0-6.4.1-8.65.16v26.45h5.5v-8.71c.66.06 1.68.11 2.34.11 6.72 0 11.34-3.66 11.34-9.46 0-5.35-3.8-8.55-10.52-8.55Zm-.81 13.63c-.72 0-1.74-.04-2.34-.2v-8.95c.71-.05 1.68-.05 2.69-.05 3.41 0 5.14 1.87 5.14 4.47 0 3.11-2.08 4.73-5.49 4.73Zm-223.63 57.56c7.58 0 13.88-5.19 13.88-13.93s-5.34-13.42-13.02-13.42-13.74 5.23-13.74 13.93c0 7.91 4.28 13.42 12.88 13.42Zm.51-22.58c4.53 0 7.47 3.11 7.47 9s-3.46 8.75-7.68 8.75c-5.19 0-7.32-3.97-7.32-9 0-5.7 3.5-8.75 7.53-8.75Zm32.75 22.47c2.6 0 4.93-.41 7.13-1.16l-.46-4.89c-1.57.77-3.56 1.23-5.54 1.23-5.25 0-8.29-3.01-8.29-8.69 0-5.24 2.79-9.01 7.99-9.01 1.83 0 3.71.31 5.59.92l.5-4.83c-1.78-.5-3.97-.72-5.7-.72-9.92 0-14.24 6.66-14.24 14.14 0 8.03 4.38 13.01 13.02 13.01Zm39.22-.36v-26.44h-5.49v10.52h-12.47v-10.52h-5.49v26.44h5.49v-11.19h12.47v11.19h5.49zm29.01-12.41 9.82 12.41h7.27l-11.4-13.73 10.83-12.71h-6.76l-9.76 11.8v-11.8h-5.49v26.44h5.49v-12.41zm33.62 12.88c7.58 0 13.88-5.19 13.88-13.93s-5.34-13.42-13.01-13.42-13.74 5.23-13.74 13.93c0 7.91 4.26 13.42 12.87 13.42Zm.5-22.58c4.52 0 7.47 3.11 7.47 9s-3.45 8.75-7.69 8.75c-5.18 0-7.32-3.97-7.32-9 0-5.7 3.52-8.75 7.54-8.75Zm29.38 7.78 9.1 14.34h7.32v-26.44h-5.34l.06 11.64c0 3.41.05 5.95.15 7.62H292c-.87-1.83-1.88-3.56-2.9-5.18l-8.91-14.09h-7.33v26.44h5.35l-.05-13.83c0-2.45-.06-4.08-.17-5.55h.06c.71 1.57 1.68 3.46 2.69 5.04Zm32.5 10.26c-2.23 0-4.32-.4-5.84-1.01l-.2 4.93c1.47.36 3.61.68 5.44.68 6.76 0 11.44-3.52 11.44-8.91 0-8.28-11.79-6.31-11.79-10.83 0-1.98 1.47-3.3 4.82-3.3 1.53 0 3.61.31 5.04.77l.2-4.69c-1.48-.25-3.5-.46-5.04-.46-6.96 0-10.83 3.3-10.83 8.29 0 8.59 11.64 6.14 11.64 10.83 0 2.6-2.38 3.71-4.88 3.71Zm28.98 4.07V361.8h7.32v-4.68h-20.14v4.68h7.32v21.76h5.5zM137.23 282.18l-.65-.09c-13.89-1.72-13.97-4.47-14.3-16.01v-20.05l23.2 25.24c8.84 9.69 13.72 15.04 26.59 15.04 2.4 0 5.04-.17 8.1-.55l.65-.07.05-3.11-.73-.03c-7.73-.34-11.96-4.73-20.36-13.45-1.16-1.21-2.39-2.49-3.7-3.82l-22.61-25.16 9.1-9.31 1.94-2.04c7.65-8.03 16.32-17.14 27.88-18.36l.67-.07v-3.1h-30.62v3.1l.67.07c3.03.32 4.66 1.02 5.12 2.23.86 2.23-1.83 6.82-8.21 14l-17.76 18.95v-19.06c.34-11.58.42-14.34 11.28-16.04l.64-.1v-3.07H96.93v3.09l.65.09c12.88 1.72 12.95 4.47 13.29 16.01v39.55c-.34 11.58-.42 14.32-13.29 16.04l-.65.09v3.09h40.28v-3.1Zm101.66-.01-.66-.08c-14.53-1.73-15.08-5.03-15.08-18.71v-51.2h6c13.28 0 18.7 4.11 22.32 16.96l.2.67 2.89-.63-1.43-21.98h-71.38l-1.39 21.98 2.89.63.2-.67c3.62-12.83 9.04-16.96 22.33-16.96h6v51.2c0 13.68-.55 16.97-15.08 18.71l-.65.08v3.11h42.86v-3.11Zm114.59-71.68.65-.09v-3.09h-40.28v3.08l.63.09c14.32 2.08 14.32 3.93 14.32 16.01v15.55h-40.64v-15.55c0-12.08 0-13.93 14.3-16.01l.65-.09v-3.08h-40.27v3.09l.65.09c12.88 1.72 12.95 4.46 13.29 16.01v39.56c-.35 11.58-.42 14.31-13.29 16.03l-.65.09v3.09h40.27v-3.08l-.65-.1c-14.3-2.08-14.3-3.93-14.3-16.01v-17.8h40.64v17.8c0 12.08 0 13.93-14.32 16.01l-.63.1v3.08h40.28v-3.09l-.65-.09c-12.88-1.72-12.95-4.46-13.28-16.01v-39.56c.33-11.57.4-14.32 13.28-16.03ZM130.76 105.25c-.28.56-2.1 4.41.59 8.54 2.93 4.49 7.92 3.72 8.09 3.7 3.45 4.35 9.19 9.54 13.89 8.2 0 0 29.6-13.72 70.64-13.78h.03c41.07.06 70.67 13.78 70.67 13.78 4.7 1.34 10.43-3.85 13.88-8.2.17.02 5.15.79 8.09-3.7 2.7-4.12.86-7.98.59-8.54 2.45-3.97 6.23-7.51 6.23-7.51a8.72 8.72 0 0 0 2.83-6.45c0-4.85-3.95-8.82-8.8-8.82-.4 0-.78.03-1.15.09-.06-.24-.15-.5-.21-.74 2.38-1.23 4.03-3.69 4.03-6.54 0-4.08-3.3-7.38-7.38-7.38-1.37 0-2.62.39-3.72 1.04-.21-.24-.42-.49-.64-.74a5.993 5.993 0 0 0 1.86-4.35c0-3.36-2.73-6.08-6.09-6.08-2.06 0-3.87 1.03-4.96 2.61-.35-.23-.71-.46-1.06-.68a5.49 5.49 0 0 0 1.09-3.27c0-3.05-2.49-5.54-5.55-5.54-2.4 0-4.41 1.54-5.18 3.67-.58-.25-1.16-.5-1.75-.74.45-.75.72-1.61.72-2.54 0-2.77-2.25-5.02-5.03-5.02-2.49 0-4.56 1.84-4.94 4.25-.37-.12-.73-.24-1.13-.35-.83-2.94-3.5-5.11-6.72-5.11-.71 0-1.4.13-2.03.33-.26-.21-.51-.42-.78-.61 0-.11.02-.21.02-.33 0-3.26-2.66-5.91-5.92-5.91-1.29 0-2.46.42-3.43 1.13l-.69-.27c0-.05.02-.09.02-.14 0-2.95-2.4-5.34-5.35-5.34-2 0-3.73 1.13-4.64 2.76-.41-.08-.83-.16-1.25-.23 0-.06.02-.13.02-.19 0-2.68-2.19-4.87-4.87-4.87-2.33 0-4.29 1.65-4.75 3.85-.47-.03-.95-.07-1.43-.1.58-1.38.91-2.9.91-4.49 0-4.42-2.49-8.26-6.17-10.2 0 0-1.35-.7-3.3-1.09v-8.8h4.94c.17-.2.5-.87.5-2.07s-.33-1.85-.5-2.05h-4.94V1.5c-.2-.17-.88-.5-2.07-.5s-1.86.32-2.07.5v4.93h-4.92c-.17.2-.5.87-.5 2.05s.33 1.87.5 2.07h4.92v8.8c-1.9.38-3.25 1.08-3.25 1.08-3.67 1.94-6.17 5.77-6.17 10.2 0 1.59.33 3.11.92 4.49-.48.03-.97.06-1.43.1a4.855 4.855 0 0 0-4.74-3.85c-2.69 0-4.88 2.19-4.88 4.87 0 .06.02.13.02.19-.43.08-.85.15-1.26.23-.9-1.64-2.64-2.76-4.63-2.76-2.95 0-5.36 2.39-5.36 5.34 0 .05.02.09.02.14l-.69.27c-.97-.7-2.14-1.13-3.43-1.13-3.27 0-5.92 2.65-5.92 5.91 0 .11 0 .21.02.33-.26.2-.52.4-.77.61-.65-.2-1.33-.33-2.04-.33-3.2 0-5.88 2.17-6.72 5.11-.39.12-.74.24-1.13.35-.37-2.41-2.44-4.25-4.94-4.25a5.03 5.03 0 0 0-5.02 5.02c0 .94.27 1.8.72 2.54-.59.24-1.18.49-1.75.74-.76-2.13-2.79-3.67-5.18-3.67-3.06 0-5.55 2.48-5.55 5.54 0 1.23.41 2.35 1.09 3.27-.35.23-.71.46-1.05.68a6.063 6.063 0 0 0-4.97-2.61c-3.36 0-6.09 2.73-6.09 6.08 0 1.71.72 3.26 1.86 4.36-.22.24-.42.49-.64.73a7.256 7.256 0 0 0-3.73-1.04c-4.06 0-7.37 3.3-7.37 7.38 0 2.86 1.64 5.31 4.03 6.54-.07.24-.16.5-.22.74-.37-.05-.76-.08-1.15-.08-4.85 0-8.81 3.96-8.81 8.81 0 2.55 1.09 4.84 2.83 6.45.03 0 3.8 3.54 6.25 7.52Zm7.62 9.18c-2.99 0-5.41-2.43-5.41-5.42 0-1.13.35-2.18.94-3.04a5.39 5.39 0 0 1 8.96-.01c.6.87.94 1.92.94 3.05 0 2.99-2.42 5.42-5.42 5.42Zm85.59-17.73c-2.97 0-5.37-2.41-5.37-5.38s2.41-5.37 5.37-5.37 5.4 2.41 5.4 5.37c0 2.97-2.42 5.38-5.4 5.38Zm.02-41.94c2.96 0 5.37 2.39 5.37 5.34s-2.41 5.34-5.37 5.34-5.34-2.4-5.34-5.34c0-2.96 2.38-5.34 5.34-5.34Zm-4.18-5.93c0-2.3 1.86-4.17 4.17-4.17s4.19 1.86 4.19 4.17S226.3 53 223.98 53c-2.3 0-4.17-1.86-4.17-4.17Zm4.15 18.7c3.67 0 6.64 2.96 6.64 6.62 0 1.67-.63 3.2-1.65 4.37-1.38-1.05-3.12-1.67-4.98-1.67s-3.6.63-4.97 1.68a6.572 6.572 0 0 1-1.65-4.37c0-3.67 2.97-6.62 6.62-6.62Zm85.62 46.9c-2.99 0-5.41-2.42-5.41-5.41 0-1.46.58-2.79 1.52-3.76a5.344 5.344 0 0 1 3.9-1.68c2.34 0 4.32 1.48 5.06 3.54.23.59.35 1.24.35 1.9 0 2.98-2.43 5.41-5.42 5.41Zm7.89-28.97c3.21 0 5.82 2.61 5.82 5.82 0 2.11-2.05 4.67-3.85 5.78-1.53-1.8-3.79-2.96-6.35-2.96-.22 0-.44.02-.67.04-.49-.85-.79-1.82-.79-2.86 0-3.21 2.62-5.82 5.83-5.82Zm-4.7-14.58c2.42 0 4.38 1.97 4.38 4.39s-1.97 4.39-4.38 4.39-4.41-1.97-4.41-4.39 1.99-4.39 4.41-4.39Zm-8.59-10.13c1.72 0 3.11 1.38 3.11 3.1s-1.39 3.08-3.11 3.08-3.09-1.38-3.09-3.08c0-1.72 1.39-3.1 3.09-3.1Zm-10.48-6.88c1.41 0 2.55 1.14 2.55 2.54s-1.15 2.55-2.55 2.55-2.54-1.15-2.54-2.55 1.14-2.54 2.54-2.54Zm-11.24-4.63c1.13 0 2.03.91 2.03 2.03s-.9 2.03-2.03 2.03-2.03-.91-2.03-2.03.91-2.03 2.03-2.03Zm-6.62 6.1c16.97 5.41 25.78 13.62 29.81 21.82 3.27 7.51 2.71 9.27 2.98 14.04.09 1.67.5 2.79.83 3.77-3.88 2.12-4.34 5.11-4.41 5.3-.16-.1-.31-.21-.48-.33-1.43-1.16-3.24-1.87-5.22-1.86-6.18.06-10.01 6.1-7.51 11.94.61 1.4 4.05 6.48 10.79 4.04.4.54.85 1.04 1.36 1.47-1.94 3.8-6.49 5.6-10.56 4.01-4.05-1.58-6.89-4.91-8.02-8.79a13.333 13.333 0 0 1-11.46 3.13c-4.56-.89-7.55-5.33-6.66-9.89.08-.42.49-2.08.68-2.7.6 3.18 3.06 5.85 6.42 6.5 4.43.87 8.75-2.04 9.62-6.45.87-4.43-2.04-8.74-6.47-9.61-.48-.1-1 0-1.5 0 .14-.39.3-.82.3-.82.19-.98.19-1.94.04-2.86 4.04-1.09 7.01-4.77 7.01-9.13 0-3.52-1.94-6.59-4.78-8.22 2.38-1.37 3.99-3.9 3.99-6.83 0-4.11-3.16-7.47-7.19-7.84.16-.22.29-.46.42-.68Zm-5.96 25.97c-.68-.14-1.35-.17-2.01-.14-.26-.71-.42-1.46-.42-2.26 0-3.58 2.91-6.48 6.49-6.48s6.49 2.91 6.49 6.48c0 3.08-2.16 5.66-5.06 6.32a8.112 8.112 0 0 0-5.48-3.92Zm9.74-17.46c0 2.72-2.2 4.93-4.93 4.93s-4.93-2.21-4.93-4.93 2.21-4.93 4.93-4.93 4.93 2.22 4.93 4.93Zm-9.94-15.82c2.21 0 4.02 1.8 4.02 4.01s-1.8 4.01-4.02 4.01-4-1.8-4-4.01 1.79-4.01 4-4.01Zm-2.63 42.1c2.97 0 5.38 2.41 5.38 5.37s-2.42 5.38-5.38 5.38-5.38-2.42-5.38-5.38 2.41-5.37 5.38-5.37Zm-6.07-48.62c1.61 0 2.92 1.31 2.92 2.92s-1.31 2.91-2.92 2.91-2.92-1.31-2.92-2.91 1.31-2.92 2.92-2.92Zm-9.46-4.63c1.31 0 2.37 1.05 2.37 2.35s-1.06 2.35-2.37 2.35-2.34-1.05-2.34-2.35 1.05-2.35 2.34-2.35Zm-10.74-2.53c1.05 0 1.89.84 1.89 1.87s-.84 1.89-1.89 1.89-1.86-.84-1.86-1.89c0-1.03.83-1.87 1.86-1.87Zm21.3 46.46 1.2 2.08a8.217 8.217 0 0 0-3 4.88s-.02.45-.03.85c-.46-.18-.88-.45-1.37-.54-4.42-.87-8.74 2.03-9.61 6.46-.86 4.42 2.03 8.73 6.47 9.61 3.37.66 6.64-.87 8.4-3.6-.06.65-.31 2.32-.39 2.75-.9 4.56-5.33 7.55-9.91 6.65-4.26-.83-7.37-3.56-9.16-7.19-2.45 3.21-6.04 5.33-10.39 5.33-4.64 0-8.44-3.78-8.44-8.43 0-.44.08-2.14.13-2.78 1.22 3.01 4.16 5.15 7.58 5.15 4.52 0 8.2-3.67 8.2-8.18s-3.68-8.19-8.2-8.19c-.49 0-.98.2-1.48.29l.13-.87c0-.81-.13-1.59-.34-2.33l2.93-1.89s-.52-27.69-5.47-40.06c.17-.09.33-.19.49-.28 40.48 2.29 37 30.41 32.24 40.29Zm-29.63-50.93c0 .17.02.35.02.53 0 1.67-.5 3.22-1.35 4.52-.74-.02-1.71-.04-2.75-.05.08-.34.13-.7.13-1.06 0-1.7-.95-3.15-2.34-3.93h6.27Zm-6.42-7.6c2.41.57 4.48 2.31 5.56 4.45h-5.56v-4.45Zm-2.05 9.65c1.03 0 1.87.84 1.87 1.87s-.84 1.87-1.87 1.87-1.87-.83-1.87-1.87.84-1.87 1.87-1.87Zm0 5.53c1.55 0 2.82 1.26 2.82 2.81s-1.27 2.81-2.82 2.81-2.81-1.26-2.81-2.81 1.25-2.81 2.81-2.81Zm-2.05-15.18v4.45h-5.54c1.09-2.15 3.15-3.88 5.54-4.45Zm-6.39 7.6h6.25c-1.38.78-2.32 2.23-2.32 3.93 0 .36.05.72.13 1.06-1.03 0-2 .02-2.74.05-.84-1.31-1.35-2.85-1.35-4.52 0-.18 0-.35.02-.53Zm-8.34 4.47c1.02 0 1.86.84 1.86 1.87s-.84 1.89-1.86 1.89-1.89-.84-1.89-1.89.85-1.87 1.89-1.87Zm-10.75 2.53c1.29 0 2.34 1.05 2.34 2.35s-1.04 2.35-2.34 2.35-2.37-1.05-2.37-2.35c0-1.31 1.07-2.35 2.37-2.35ZM187 41.51a2.915 2.915 0 0 1 0 5.83c-1.6 0-2.93-1.31-2.93-2.91s1.31-2.92 2.93-2.92Zm31.13-.99c.16.09.32.19.48.28-4.94 12.37-5.46 40.06-5.46 40.06l2.93 1.89c-.21.74-.33 1.52-.33 2.33 0 0 .06.46.13.87-.49-.09-.99-.29-1.48-.29-4.52 0-8.19 3.67-8.19 8.19s3.67 8.18 8.19 8.18c3.43 0 6.36-2.13 7.57-5.15.06.64.13 2.34.13 2.78 0 4.65-3.78 8.43-8.43 8.43-4.34 0-7.93-2.13-10.38-5.33-1.79 3.63-4.91 6.37-9.17 7.19-4.57.9-9.01-2.09-9.91-6.65-.08-.43-.32-2.12-.39-2.75 1.77 2.72 5.04 4.26 8.41 3.6 4.44-.87 7.32-5.18 6.46-9.61-.86-4.43-5.18-7.33-9.61-6.46-.49.09-.91.36-1.37.54 0-.4-.02-.85-.02-.85a8.152 8.152 0 0 0-3-4.88l1.2-2.08c-4.78-9.88-8.26-38 32.22-40.29ZM186.3 95.51c0 2.97-2.41 5.37-5.38 5.37s-5.38-2.41-5.38-5.37 2.41-5.38 5.38-5.38c2.98 0 5.38 2.41 5.38 5.38Zm-13.7-10.28c-2.89-.65-5.06-3.23-5.06-6.32 0-3.58 2.91-6.48 6.49-6.48s6.49 2.91 6.49 6.48c0 .79-.17 1.55-.42 2.26-.66-.03-1.33 0-2.01.14-2.41.46-4.35 1.95-5.49 3.92Zm5.69-37.2c2.21 0 4 1.8 4 4.01s-1.79 4.01-4 4.01-4.02-1.8-4.02-4.01 1.8-4.01 4.02-4.01Zm-5.02 10.9c2.71 0 4.93 2.21 4.93 4.93s-2.21 4.93-4.93 4.93-4.93-2.21-4.93-4.93c0-2.71 2.2-4.93 4.93-4.93Zm-7.75-9.69c1.12 0 2.02.91 2.02 2.03s-.91 2.03-2.02 2.03-2.03-.91-2.03-2.03.9-2.03 2.03-2.03Zm-11.24 4.63c1.4 0 2.54 1.14 2.54 2.54s-1.14 2.55-2.54 2.55-2.56-1.15-2.56-2.55 1.14-2.54 2.56-2.54Zm17.84 1.46c.13.23.26.46.4.68-4.01.37-7.18 3.72-7.18 7.84 0 2.93 1.61 5.46 3.98 6.83-2.86 1.64-4.78 4.7-4.78 8.22 0 4.37 2.97 8.04 7.01 9.13-.15.93-.15 1.9.04 2.86l.3.82c-.5 0-1.03-.09-1.51 0-4.43.87-7.33 5.18-6.46 9.61.86 4.42 5.18 7.32 9.61 6.45 3.37-.65 5.83-3.32 6.44-6.5.19.61.59 2.27.67 2.7.9 4.56-2.09 9-6.65 9.89-4.26.83-8.46-.45-11.47-3.13a13.398 13.398 0 0 1-8.02 8.79c-4.06 1.59-8.61-.21-10.56-4.01.51-.43.96-.93 1.36-1.47 6.75 2.45 10.2-2.64 10.79-4.04 2.5-5.84-1.32-11.88-7.51-11.94a8.13 8.13 0 0 0-5.23 1.86c-.16.11-.31.23-.48.33-.05-.2-.51-3.19-4.4-5.3.33-.98.76-2.1.84-3.77.27-4.78-.29-6.53 2.98-14.04 4.05-8.19 12.85-16.4 29.83-21.81Zm-28.33 5.42c1.7 0 3.09 1.38 3.09 3.1s-1.38 3.08-3.09 3.08-3.11-1.38-3.11-3.08c0-1.72 1.39-3.1 3.11-3.1Zm-12.97 14.52c0-2.42 1.97-4.39 4.38-4.39s4.41 1.97 4.41 4.39-1.97 4.39-4.41 4.39a4.38 4.38 0 0 1-4.38-4.39Zm-.32 10.19c3.21 0 5.83 2.61 5.83 5.82 0 1.05-.31 2.01-.79 2.86-.22-.02-.44-.04-.67-.04-2.55 0-4.82 1.16-6.35 2.96-1.8-1.12-3.84-3.67-3.84-5.78 0-3.21 2.6-5.82 5.81-5.82Zm153.39 63c.78 0 1.5-.47 1.8-1.24.35-.99-.14-2.09-1.13-2.45-19.1-7.07-39.24-10.66-59.91-10.66h-1.33c-20.65 0-40.8 3.59-59.89 10.66-.99.37-1.49 1.46-1.13 2.45.36.98 1.46 1.49 2.45 1.13 18.67-6.92 38.37-10.43 58.57-10.43h1.33c20.21 0 39.91 3.51 58.58 10.43.22.07.45.11.66.11Z"/><path d="m295.42 137.34-2.79-7.42-.42-1.13-3.57.59c-19.57-7.51-40.16-11.49-61.28-11.87l-3.39-1.94-3.37 1.94c-21.11.38-41.71 4.37-61.27 11.87l-3.58-.59-.42 1.13-2.79 7.42 7.99 4.44 2.58-3.06c18.15-6.81 37.23-10.49 56.78-10.92l4.08 2.33 4.1-2.33c19.56.44 38.64 4.11 56.8 10.92l2.56 3.06 8-4.44Zm-135.56.71c-1.09-.61-2.55-1.42-3.67-2.04.46-1.2 1.04-2.77 1.47-3.93 1.32.22 3.96.65 6.36 1.05-1.57 1.85-3.3 3.89-4.15 4.92Zm33.67-9.57-6.4 1.31c-1.76.36-3.49-.77-3.85-2.53-.36-1.76.76-3.49 2.53-3.85l6.42-1.32c1.77-.37 3.49.78 3.86 2.54.35 1.75-.79 3.47-2.56 3.84Zm30.44-1.79-6.71-3.83 6.72-3.85 6.73 3.85-6.74 3.83Zm40.73.57a3.248 3.248 0 0 1-3.85 2.53l-6.4-1.31a3.274 3.274 0 0 1-2.55-3.85c.37-1.76 2.09-2.91 3.86-2.54l6.41 1.32c1.77.37 2.9 2.09 2.53 3.86Zm19.26 5.85c2.4-.39 5.04-.83 6.36-1.05.43 1.16 1.01 2.74 1.47 3.93-1.13.62-2.59 1.43-3.68 2.04-.87-1.01-2.59-3.05-4.15-4.92Z"/></svg>