<svg xmlns="http://www.w3.org/2000/svg" viewBox="0 0 192 192"><ellipse cx="96.655" cy="57.812" fill="#ffe6cc" stroke="#faad6c" stroke-linecap="round" stroke-linejoin="round" stroke-width=".491" rx="21.873" ry="29.738"/><ellipse cx="96.693" cy="35.545" fill="#a54d04" rx="21.347" ry="10.709"/><path fill="#eee" stroke="#242424" stroke-linecap="round" stroke-linejoin="round" stroke-miterlimit="3.8" stroke-width=".491" d="M27.708 105.1h17.723v12.491H27.708z" transform="matrix(.98034 -.19731 .2021 .97937 0 0)"/><path fill="#eee" stroke="#242424" stroke-linecap="round" stroke-linejoin="round" stroke-miterlimit="3.8" stroke-width=".491" d="M62.155 87.506h68.451v96.564H62.155z"/><path fill="red" d="M109.1 119.51v72.368H21.783z"/><path fill="#4476e9" d="M109.09 119.51V192h73.126z"/><g stroke-linecap="round" stroke-linejoin="round"><path fill="#eee" stroke="#242424" stroke-miterlimit="3.8" stroke-width=".491" d="m42.432 107.67 12.825 4.032 8.509-28.94-10.73-9.218z"/><path fill="#ffe6cc" stroke="#faad6c" stroke-width=".5" d="m52.124 72.774 9.583 13.67c5.523-.656 12.023-7.962 6.756-13.977-4.122-3.515-9.146-5.238-16.34.307z"/><path fill="#eee" stroke="#242424" stroke-miterlimit="3.8" stroke-width=".495" d="m129.77 91.703 10.239 7.6-3.802 4.933-6.51-4.722z"/><path fill="#eee" stroke="#242424" stroke-miterlimit="3.8" stroke-width=".495" d="m140 98.865-26.495 3.177 6.66 15.057 21.7-2.921z"/><path fill="#ffe6cc" stroke="#faad6c" stroke-width=".491" d="m113.8 101.92 6.717 15.516c-6.25 2.039-12.871 2.742-15.678-3.823-2.062-7.776 3.684-10.158 8.961-11.693z"/></g></svg>