<svg width="256" height="183.12" viewBox="0 0 204.8 146.49" xmlns="http://www.w3.org/2000/svg"><g fill="#fff"><path d="M132.965.044c15.19.378 31.141 4.868 42.031 15.966 5.24 5.506 8.562 13.36 6.858 20.994-1.426 6.838-7.665 13.879-12.695 18.399-8.263-3.971-13.653-7.464-16.331-8.816 5.962-2.46 11.746-9.38 11.754-15.672.025-7.901-6.562-14.068-13.34-17.069-10.414-4.91-22.798-5.46-33.74-1.948-7.414 2.365-14.643 7.6-16.516 15.543-3.558 10.289-6.967 20.632-10.605 30.89-2.306-6.438-7.603-11.293-13.734-14.064 3.278-7.987 5.978-16.235 9.732-24.013C92.7 9.505 104.932 3.885 116.733 1.5c5.312-1.108 10.81-1.556 16.232-1.456z"/><path d="M155.177 18.227c3.703 3.002 6.93 7.286 6.744 12.271.144 5.178-3.434 9.677-7.574 12.407-6.49 4.315-14.428 5.862-22.12 5.716-11.472-1.078-22.921-2.407-34.369-3.713 1.19-3.924 2.45-7.838 3.849-11.69 10.63 1.043 21.22 2.515 31.874 3.306 3.88-.286 8.17-1.419 10.311-4.971.899-1.562.707-3.546-.161-5.058-3.062-4.369-8.958-5.359-13.933-4.814-3.596.518-7.744 2.434-8.666 6.26-.452 2.407 1.215 4.53 2.953 6.002a1075.232 1075.232 0 0 1-20.18-2.268c-.656-2.542-.079-5.216.882-7.598 2.456-4.947 7.16-8.39 12.279-10.218 5.227-2.162 10.952-2.883 16.579-2.657 7.89.116 16.602 3.198 21.533 7.025zM67.13 29.533c4.93.238 8.74.353 12.07.816-1.854 3.166-4.426 10.691-5.69 12.679-8.84-2.351-20.061-2.87-29.149.227-9.347 2.852-18.52 8.864-22.714 17.96-3.204 6.815-1.545 15.342 3.931 20.492 8.555 8.127 21.15 10.137 32.486 8.665 11.242-1.963 22.105-5.653 33.23-8.173 9.064-2.287 18.087-4.731 27.171-6.93-7.159 4.866-10.808 11.172-11.497 19.024-13.95 3.757-27.867 7.68-41.899 11.096-15.02 3.23-31.33 2.34-45.259-4.5C10.454 96.306 2.124 87.89.363 77.33c-1.616-9.241 2.096-18.61 7.933-25.68 14.297-16.61 37.455-23.491 58.835-22.116z"/><path d="M60.689 42.734c7.353.27 14.958 2.183 20.652 7.069 5.12 4.08 6.783 10.71 9.625 16.326 1.873 4.15 3.851 8.254 5.658 12.434A1712.437 1712.437 0 0 1 77.27 83.45c-3.135-7.558-6.082-15.196-9.24-22.743-1.781-3.803-6.36-5.243-10.278-5.46-5.254-.048-10.879 1.848-13.985 6.295-1.728 2.761-1.475 6.666 1.058 8.874 2.85 2.682 7.094 3.253 10.876 3.138 5.2-.71 9.264-3.322 12.306-5.913 1.813 4.815 4.04 10.462 5.76 15.303-6.388 3.478-13.61 5.334-20.87 5.544-6.147.15-12.445-.906-18.023-3.54-5.394-2.713-10.355-7.315-11.539-13.454-.883-3.681-.065-7.6 1.462-11 4.58-8.76 13.806-14.136 23.156-16.446 4.18-.96 8.442-1.496 12.735-1.314zM154.422 50.681c10.141 5.811 20.735 10.892 30.454 17.401 11.003 7.96 19.656 20.44 19.878 34.37.34 14.049-8.429 27.032-20.193 34.146-14.73 9.412-33.282 11.7-50.272 8.523-14.426-2.768-28.48-9.58-38.053-20.94-5.477-6.088-8.243-13.938-11.152-21.452 6.719-1.771 13.4-3.693 20.137-5.397 3.103 6.758 5.994 13.954 11.782 18.903 9.593 8.202 22.695 11.755 35.154 10.473 12.152-1.217 25.074-7.605 29.699-19.556 3.94-9.577-.273-20.644-7.597-27.392-6.37-5.908-14.647-9.137-21.91-13.76-9.31-5.499-18.806-10.724-28.061-16.283 8.311 1.347 16.929 1.015 24.917-1.815 1.757.89 3.478 1.852 5.216 2.779z"/><path d="M153.666 69.637c-6.847 6.658-13.902 13.093-20.547 19.945-2.425 2.707-2.711 6.882-.893 9.986 2.563 4.61 8.139 6.801 13.223 6.943 5.247.106 11.417-2.259 13.207-7.619.854-2.517.42-5.338-1.114-7.496-3.099-4.654-9.93-7.544-15.35-7.188 1.123-1.254 8.165-8.08 12.424-12.303 7.679 2.757 18.39 7.88 22.948 16.376 3.387 6.275 3.546 14.245.01 20.5-4.189 7.634-12.283 12.323-20.543 14.335-10.165 2.264-21.155.973-30.43-3.787-5.65-3.013-10.717-7.333-13.76-13.036-3.384-6.207-3.718-14.134-.218-20.377 3.237-6.02 9.085-9.89 13.907-14.533 4.058-3.575 7.994-7.3 12.127-10.783 5.204 2.978 9.59 5.694 15.009 9.036z"/></g></svg>