<?xml version="1.0" encoding="UTF-8" standalone="no"?>
<svg
   xmlns="http://www.w3.org/2000/svg"
   width="4935"
   height="3445"
   viewBox="0 0 3948 2756"
   preserveAspectRatio="xMidYMid meet">
  <g
     transform="matrix(0.1,0,0,-0.1,-887.28,2756)"
     id="g6"
     style="fill:#ffffff;stroke:none">
    <path
       d="m 34363.55,27512 c 587,-16 1112,-57 1635,-129 1283,-177 2269,-441 3290,-884 209,-90 534,-241 721,-335 299,-150 382,-197 675,-383 425,-270 828,-575 1218,-922 248,-221 276,-250 488,-498 170,-199 267,-325 398,-514 95,-137 185,-264 200,-282 14,-17 52,-90 84,-161 32,-71 100,-206 150,-299 82,-153 99,-195 185,-456 83,-249 103,-325 153,-570 l 57,-282 4,-350 c 2,-209 -1,-366 -7,-390 -5,-22 -21,-143 -36,-270 -24,-207 -32,-246 -76,-390 -145,-464 -160,-506 -264,-715 -56,-113 -126,-257 -155,-320 -29,-63 -83,-158 -120,-210 -37,-52 -126,-183 -200,-290 -79,-116 -166,-230 -214,-280 -45,-47 -167,-180 -273,-295 -259,-283 -1289,-1269 -1319,-1263 -24,6 -2833,1553 -2831,1560 1,4 135,122 297,264 642,559 1163,1065 1288,1251 211,314 380,619 446,803 14,41 49,177 76,302 27,125 54,236 60,247 13,25 13,490 0,546 -5,22 -23,135 -41,250 -30,206 -32,212 -87,330 -30,66 -76,176 -102,245 -37,100 -74,170 -183,350 -115,189 -166,260 -318,447 -154,187 -204,241 -328,349 -80,71 -182,163 -226,205 -48,46 -179,145 -329,249 -208,144 -291,194 -500,303 -573,298 -865,427 -1203,528 -133,41 -239,78 -236,83 3,5 1,6 -4,3 -13,-8 -74,3 -69,12 2,3 -9,7 -26,7 -17,1 -33,5 -37,10 -5,8 -23,13 -58,16 -7,1 -13,5 -13,9 0,4 -9,5 -20,2 -12,-3 -20,0 -20,6 0,7 -4,10 -9,7 -13,-9 -72,5 -65,15 3,5 -1,6 -9,4 -7,-3 -134,26 -283,64 -148,38 -312,74 -364,81 -52,6 -219,29 -370,50 -219,31 -350,43 -645,60 -393,21 -1001,27 -1131,10 -39,-5 -199,-19 -355,-30 -239,-18 -341,-31 -639,-81 -209,-36 -358,-66 -365,-74 -5,-7 -158,-47 -340,-90 -284,-66 -348,-84 -460,-132 -71,-31 -213,-84 -315,-118 -174,-58 -360,-140 -672,-296 -65,-33 -227,-130 -360,-217 -134,-87 -263,-171 -287,-187 -82,-51 -455,-363 -500,-417 -24,-29 -108,-123 -186,-208 -347,-375 -497,-640 -700,-1235 -889,-2606 -1519,-4445 -1543,-4505 -17,-42 -78,-231 -137,-420 -94,-306 -382,-1120 -395,-1120 -3,0 -51,107 -108,238 -77,176 -143,306 -255,502 -150,263 -152,266 -358,515 -190,228 -228,269 -446,468 -223,203 -258,230 -515,405 -247,168 -307,204 -586,347 -172,88 -312,163 -312,167 0,4 351,903 781,1999 756,1930 785,2002 916,2262 102,204 163,313 255,451 67,99 150,227 184,284 41,69 102,148 186,240 68,75 169,191 225,257 56,66 130,144 165,174 35,29 159,144 277,255 270,254 625,523 946,716 116,69 269,165 340,213 229,153 1063,540 1460,679 494,171 729,250 850,283 299,81 877,212 1265,286 398,76 432,81 840,120 540,51 1181,96 1375,98 83,0 314,-4 515,-9 z"
       id="path3365"
       style="fill:#ffffff"
        />
    <path
       d="m 35023.55,25384 c 129,-18 298,-38 375,-47 450,-47 1155,-234 1690,-447 498,-198 752,-323 1020,-502 83,-55 196,-128 253,-162 73,-43 146,-101 245,-192 78,-71 174,-157 212,-190 135,-118 392,-410 514,-586 150,-216 192,-288 263,-456 97,-228 105,-256 148,-464 22,-105 44,-207 50,-226 6,-20 10,-155 10,-321 0,-267 -2,-293 -25,-397 -13,-62 -31,-150 -39,-196 -10,-58 -28,-111 -59,-172 -24,-49 -72,-160 -107,-248 -54,-139 -73,-174 -149,-280 -48,-66 -107,-150 -131,-186 -58,-86 -184,-230 -319,-365 -61,-60 -111,-114 -111,-120 -1,-5 -33,-34 -73,-63 -40,-29 -142,-107 -227,-173 -118,-92 -223,-161 -440,-288 -403,-236 -741,-389 -1215,-548 -335,-113 -345,-115 -695,-184 -230,-45 -488,-87 -730,-120 -370,-49 -381,-50 -775,-61 l -400,-10 -400,31 c -393,31 -6127,659 -6140,673 -7,6 176,583 385,1213 71,215 151,458 179,540 92,281 150,440 159,443 15,5 1103,-114 2412,-263 1364,-155 3050,-329 3361,-346 l 215,-12 270,33 c 237,28 296,39 498,92 225,59 234,62 435,163 206,103 278,151 448,297 34,29 114,120 178,201 116,148 117,150 166,289 l 49,140 0,150 0,150 -51,162 -52,163 -108,139 c -88,113 -137,164 -260,270 -144,125 -161,137 -343,232 -168,88 -217,108 -411,170 -324,104 -565,146 -925,161 -183,8 -251,6 -460,-11 -243,-20 -247,-20 -475,-83 -197,-54 -258,-76 -425,-152 -175,-80 -210,-100 -347,-201 -133,-99 -165,-128 -263,-245 -62,-72 -121,-152 -132,-177 -11,-25 -44,-97 -74,-160 l -53,-115 -10,-150 -9,-150 40,-150 c 39,-146 42,-153 130,-293 86,-135 99,-150 250,-290 87,-81 155,-148 150,-150 -13,-4 -1326,138 -1842,200 -234,27 -766,87 -1183,132 -503,55 -761,86 -766,94 -4,7 -20,112 -36,233 l -28,220 33,237 c 29,216 38,257 100,463 l 69,226 124,216 c 91,157 164,269 268,407 79,104 148,190 155,190 6,0 64,59 130,130 111,123 223,226 304,280 19,13 100,71 180,130 80,59 224,154 320,210 96,56 187,111 202,121 70,48 711,316 992,413 324,113 398,134 638,177 123,22 271,54 330,70 179,49 647,107 993,123 39,1 304,2 590,1 l 520,-2 z"
       id="path3363"
       style="fill:#ffffff"
        />
    <path
       d="m 21995.55,21972 c 358,-24 668,-53 1370,-128 499,-54 910,-100 913,-103 3,-3 -30,-93 -73,-200 -44,-107 -100,-252 -127,-324 -64,-175 -159,-413 -300,-750 -110,-262 -289,-713 -331,-832 -10,-29 -23,-53 -29,-53 -5,0 -417,44 -915,99 -650,72 -1026,108 -1335,130 -418,29 -440,29 -805,20 -298,-8 -413,-15 -560,-34 -102,-13 -284,-31 -405,-40 -199,-14 -260,-24 -625,-96 -223,-44 -432,-89 -465,-99 -33,-11 -208,-60 -388,-110 -564,-157 -920,-289 -1407,-525 -289,-139 -387,-193 -710,-390 -359,-218 -387,-237 -645,-443 -335,-267 -375,-302 -609,-532 -173,-170 -342,-363 -578,-660 -41,-52 -153,-216 -248,-365 l -173,-270 -119,-295 c -118,-293 -119,-297 -189,-600 -81,-351 -86,-386 -94,-690 l -6,-225 44,-325 45,-325 96,-280 97,-280 128,-215 c 71,-118 144,-246 164,-285 25,-49 99,-146 251,-325 214,-254 217,-256 483,-483 315,-268 396,-327 683,-497 259,-153 293,-171 675,-343 271,-122 338,-148 700,-265 l 400,-131 425,-80 c 420,-79 431,-81 880,-121 446,-39 463,-40 889,-40 l 435,0 475,50 c 467,50 485,52 931,141 441,88 503,104 2023,505 1651,436 2101,553 3247,839 388,97 977,248 1310,335 333,87 877,227 1210,310 333,83 878,225 1212,316 333,90 620,164 636,164 16,0 260,59 542,131 282,72 514,129 516,127 2,-2 -101,-95 -229,-207 -128,-112 -366,-332 -529,-489 l -297,-285 -206,-295 c -180,-256 -230,-336 -380,-611 l -173,-316 -110,-340 -111,-340 -57,-340 c -31,-187 -62,-345 -68,-351 -10,-11 -2630,-719 -3586,-969 -223,-58 -574,-153 -780,-210 -206,-57 -503,-136 -660,-175 -157,-39 -377,-98 -490,-130 -113,-32 -279,-77 -370,-100 -190,-48 -1150,-313 -1195,-330 -16,-6 -275,-63 -575,-125 -300,-63 -565,-121 -590,-130 -25,-9 -281,-48 -570,-86 -289,-38 -547,-74 -575,-79 -27,-5 -297,-28 -600,-51 l -550,-42 -671,12 -670,11 -518,60 c -284,33 -538,60 -564,60 -26,0 -297,49 -602,109 l -555,109 -492,151 c -271,83 -506,151 -522,151 -16,0 -249,90 -518,199 -473,194 -499,206 -833,386 -494,267 -491,266 -865,518 -381,257 -406,277 -805,624 -276,241 -292,256 -523,523 -319,368 -333,387 -567,750 -200,311 -205,320 -387,705 l -184,390 -100,375 -100,375 -30,315 c -16,173 -35,353 -41,399 -9,64 -9,123 0,245 7,89 12,262 12,386 l 0,225 81,375 c 67,312 95,421 169,650 49,151 102,322 119,380 20,70 52,146 96,228 37,67 116,227 177,355 61,127 127,255 147,282 21,28 111,172 200,320 198,326 177,297 474,674 224,284 263,328 552,620 201,203 370,363 480,456 94,78 253,215 355,304 102,89 205,173 230,188 43,25 523,369 641,459 65,50 498,319 719,447 243,140 801,413 1305,639 392,175 438,193 840,330 541,184 625,211 995,312 514,142 593,160 1110,257 651,123 1242,198 1870,238 385,25 500,29 1002,30 530,1 597,-1 1030,-29 z"
       id="path3361"
       style="fill:#ffffff"
        />
    <path
       d="m 20785.55,19492 c 68,-5 231,-14 363,-20 164,-7 289,-18 395,-35 312,-50 548,-94 686,-129 78,-20 236,-56 351,-80 189,-40 238,-55 533,-166 292,-109 353,-136 605,-267 199,-104 322,-176 425,-248 80,-56 208,-145 285,-198 154,-106 522,-422 598,-514 71,-85 317,-408 364,-478 145,-217 411,-756 710,-1440 75,-170 183,-409 240,-530 58,-121 117,-251 133,-290 15,-38 78,-178 140,-310 369,-789 929,-2019 923,-2026 -10,-9 -3632,-924 -3636,-918 -10,13 -1100,2709 -1373,3394 -317,799 -328,824 -426,992 l -100,172 -154,142 c -138,128 -171,152 -336,252 -192,115 -215,124 -498,212 -141,43 -226,62 -435,95 -259,42 -261,42 -470,37 -183,-4 -251,-11 -523,-51 l -312,-47 -213,-73 c -116,-40 -230,-76 -252,-80 -67,-12 -490,-238 -565,-302 -36,-30 -120,-97 -188,-147 -105,-79 -145,-118 -279,-271 l -156,-180 -88,-185 c -79,-170 -88,-194 -99,-281 -7,-52 -20,-141 -30,-198 l -17,-103 29,-182 c 15,-100 33,-198 40,-217 6,-19 44,-100 84,-180 72,-143 75,-148 221,-303 l 148,-157 209,-121 c 203,-117 217,-123 442,-199 224,-76 240,-79 498,-119 260,-40 271,-41 528,-41 l 263,0 280,50 c 263,47 297,56 555,141 l 275,91 231,130 c 202,114 256,150 425,284 l 194,153 125,175 c 120,169 145,193 167,164 5,-7 47,-119 93,-248 46,-129 135,-356 198,-505 62,-148 153,-381 202,-517 76,-211 244,-632 454,-1136 31,-74 65,-166 77,-205 12,-40 34,-97 49,-128 28,-55 77,-206 69,-213 -2,-2 -163,-83 -357,-180 -326,-163 -378,-186 -683,-296 -234,-85 -452,-155 -752,-241 l -422,-121 -440,-73 c -516,-86 -547,-90 -940,-110 -165,-8 -337,-20 -383,-26 -67,-9 -169,-7 -515,11 -400,21 -460,26 -817,76 -382,53 -388,54 -790,158 -370,96 -435,116 -750,233 l -345,127 -230,134 c -126,74 -270,154 -319,179 -57,29 -173,109 -330,227 -132,100 -255,191 -273,201 -17,10 -133,125 -256,255 -213,225 -231,246 -367,450 -79,118 -155,231 -170,250 -26,34 -236,489 -258,560 -6,19 -32,132 -58,250 -25,118 -55,236 -65,263 -17,43 -19,77 -19,352 l 0,304 40,228 c 22,126 40,247 40,271 0,48 49,204 103,327 20,44 52,136 73,205 31,104 53,153 134,295 53,94 116,206 140,250 24,44 69,112 100,150 31,39 108,142 170,230 156,221 523,614 700,750 52,40 163,132 245,204 104,92 200,164 315,238 91,59 242,160 337,225 106,74 212,137 280,169 59,27 119,56 133,64 312,171 438,231 770,363 307,121 406,156 730,251 351,102 401,114 780,185 517,96 481,90 784,126 160,19 314,30 405,31 80,1 214,5 296,9 239,11 376,11 507,0 z"
       id="path3359"
       style="fill:#ffffff"
        />
    <path
       d="m 38394.55,17999 c 530,-288 1324,-725 1764,-972 440,-246 1153,-641 1585,-878 432,-236 864,-474 960,-527 283,-157 1006,-600 1149,-704 72,-53 236,-169 364,-259 212,-149 268,-195 647,-535 376,-336 445,-403 732,-709 276,-295 352,-384 602,-703 273,-348 298,-383 531,-757 135,-215 252,-409 259,-430 31,-86 118,-278 200,-441 170,-339 229,-493 361,-937 42,-143 81,-268 87,-278 5,-10 45,-220 89,-465 l 80,-447 30,-450 c 27,-381 29,-461 20,-525 -14,-88 -71,-744 -71,-810 0,-55 -124,-607 -180,-801 -23,-78 -85,-264 -139,-413 -54,-149 -124,-347 -156,-439 -56,-161 -68,-185 -288,-570 -126,-221 -242,-428 -258,-459 -16,-31 -140,-207 -277,-390 -136,-183 -260,-352 -274,-376 -14,-23 -140,-163 -280,-310 -140,-147 -304,-320 -364,-384 -66,-71 -170,-166 -264,-241 -85,-68 -270,-222 -410,-341 -140,-120 -265,-222 -276,-226 -34,-13 -559,-359 -759,-499 -110,-78 -213,-141 -265,-165 -47,-20 -191,-92 -320,-160 -129,-67 -296,-150 -370,-185 -74,-34 -166,-80 -205,-100 -38,-21 -101,-48 -140,-61 -38,-13 -90,-33 -115,-45 -83,-42 -927,-364 -1032,-394 -274,-79 -1105,-292 -1193,-306 -55,-9 -334,-58 -620,-110 -357,-65 -543,-95 -595,-95 -41,0 -327,-23 -635,-51 l -560,-51 -565,7 c -311,4 -628,10 -705,15 -229,14 -1373,119 -1414,130 -21,5 -306,64 -632,129 -327,66 -614,127 -639,136 -25,9 -299,90 -610,180 l -565,163 -624,242 -624,241 -511,256 c -281,140 -533,272 -561,292 -27,21 -252,165 -500,320 -267,168 -470,303 -500,331 -27,27 -229,188 -449,359 l -399,311 -411,400 c -226,220 -417,409 -424,420 -7,11 -160,197 -340,413 -180,216 -335,409 -344,429 -9,20 -129,211 -266,425 -136,213 -256,408 -266,433 -10,25 -107,234 -216,465 -109,231 -269,591 -356,800 -160,386 -185,451 -324,815 -43,113 -105,272 -139,353 -34,82 -59,152 -56,156 2,5 28,11 57,15 29,4 209,52 400,107 191,54 528,146 750,204 222,59 889,239 1483,402 681,186 1085,292 1093,286 7,-4 181,-375 386,-823 341,-746 388,-843 556,-1145 181,-325 188,-335 428,-655 l 244,-325 312,-314 311,-313 375,-282 c 356,-268 395,-294 764,-516 l 389,-233 436,-189 c 428,-185 445,-192 916,-343 l 480,-153 325,-57 c 179,-31 406,-77 505,-101 179,-43 183,-44 685,-83 l 505,-39 485,10 485,9 487,70 c 473,67 500,73 960,180 260,61 480,116 488,123 8,7 197,82 420,166 431,163 662,270 1055,487 161,89 641,412 810,545 28,22 200,184 384,361 331,319 336,324 550,597 199,254 222,288 302,440 47,91 129,245 183,343 86,156 107,205 171,395 40,119 95,280 123,358 45,127 55,170 101,457 l 51,316 0,392 0,391 -71,366 c -65,338 -75,378 -131,526 -33,89 -89,245 -123,347 -60,177 -72,205 -246,520 -181,330 -186,338 -414,644 -167,223 -283,367 -417,515 -251,278 -325,347 -673,637 l -300,250 -390,245 c -282,177 -725,435 -1600,933 -665,379 -1669,957 -2230,1285 -561,328 -1785,1035 -2720,1570 -935,535 -1719,986 -1742,1004 -22,17 -38,32 -33,34 4,2 180,-20 391,-47 556,-73 847,-91 1477,-91 l 503,0 407,51 c 352,44 461,62 812,135 362,75 441,95 740,188 184,57 342,104 351,105 8,1 449,-235 980,-522 z"
       id="path3357"
       style="fill:#ffffff"
        />
    <path
       d="m 36875.55,15299 c 785,-458 1426,-835 1425,-839 -1,-4 -704,-674 -1562,-1489 -858,-814 -1695,-1615 -1860,-1779 -165,-163 -310,-302 -322,-309 -22,-11 -304,-363 -329,-410 -8,-14 -52,-114 -98,-221 l -84,-195 -21,-180 c -12,-99 -25,-196 -30,-217 -6,-27 2,-94 31,-265 l 40,-228 101,-222 101,-223 160,-200 161,-201 215,-165 c 213,-164 218,-167 470,-294 274,-137 297,-146 640,-239 222,-60 230,-61 525,-90 320,-31 347,-31 735,0 132,10 170,18 435,91 305,84 411,126 655,256 108,57 490,336 543,395 15,18 82,111 149,207 107,154 128,192 180,320 93,230 98,252 123,505 l 23,230 -50,230 -50,230 -116,204 c -65,113 -119,212 -122,222 -3,10 -79,97 -170,194 -146,157 -189,195 -375,337 -199,153 -220,166 -405,255 -242,117 -385,169 -660,238 -199,50 -238,56 -534,86 l -320,33 -244,-23 c -134,-12 -245,-21 -248,-19 -7,7 153,185 188,209 18,12 186,174 373,359 187,185 414,403 505,485 186,168 612,580 1137,1100 l 353,350 373,-124 c 332,-110 413,-141 752,-292 328,-145 427,-194 725,-361 337,-189 353,-200 660,-429 241,-180 378,-292 582,-475 265,-237 270,-242 498,-519 212,-257 246,-305 423,-585 192,-303 194,-307 331,-620 l 138,-315 79,-325 c 50,-205 83,-364 90,-430 5,-58 17,-168 24,-245 28,-270 29,-347 6,-535 -11,-96 -25,-246 -31,-332 -12,-187 -10,-179 -110,-529 -79,-274 -81,-280 -227,-590 -80,-173 -160,-336 -177,-364 -73,-122 -305,-451 -378,-536 -191,-225 -513,-562 -587,-617 -42,-30 -112,-85 -156,-122 -44,-36 -93,-74 -110,-85 -16,-10 -93,-69 -170,-131 -114,-91 -201,-147 -470,-304 -386,-225 -386,-225 -620,-323 -99,-42 -265,-112 -369,-156 -156,-67 -225,-91 -390,-132 -111,-27 -299,-81 -418,-120 -205,-66 -231,-71 -465,-104 -136,-19 -336,-51 -443,-70 -183,-33 -224,-36 -655,-56 -406,-19 -492,-20 -735,-10 -368,15 -653,42 -955,91 -436,70 -646,114 -940,198 -154,45 -353,99 -442,121 -134,34 -234,70 -575,208 -385,156 -428,176 -633,294 -444,254 -543,314 -690,419 -82,59 -235,166 -340,240 -159,111 -217,160 -360,299 -94,91 -228,216 -298,276 -113,97 -141,128 -236,260 -60,83 -170,224 -245,315 -105,126 -157,200 -223,315 -47,83 -134,229 -193,325 -95,156 -112,191 -155,320 -26,80 -80,231 -120,335 -141,366 -194,632 -226,1130 -20,317 -20,354 0,470 5,33 24,164 41,290 39,296 59,388 132,620 43,137 86,247 156,395 123,263 234,470 290,542 24,31 112,156 196,277 141,205 167,236 381,461 212,223 364,362 1950,1784 946,849 1826,1638 1955,1755 156,140 240,209 250,205 8,-3 657,-380 1442,-837 z"
       id="path8"
       style="fill:#ffffff"
        />
  </g>
</svg>
